<mxfile host="app.diagrams.net" modified="2021-07-28T05:12:32.275Z" agent="5.0 (Windows NT 10.0; Win64; x64) AppleWebKit/537.36 (KHTML, like Gecko) Chrome/92.0.4515.107 Safari/537.36" etag="vtmA4XrjfDcYFXQSyQ5V" version="14.9.2" type="github">
  <diagram id="Kf2YQzxJRZqhJv85EQQ8" name="Page-1">
    <mxGraphModel dx="3840" dy="2662" grid="1" gridSize="10" guides="1" tooltips="1" connect="1" arrows="1" fold="1" page="1" pageScale="1" pageWidth="827" pageHeight="1169" math="0" shadow="0">
      <root>
        <mxCell id="0" />
        <mxCell id="1" parent="0" />
        <mxCell id="MD2-rtIMPpAFqubzUFR5-1" value="user" style="shape=table;startSize=30;container=1;collapsible=1;childLayout=tableLayout;fixedRows=1;rowLines=0;fontStyle=1;align=center;resizeLast=1;" parent="1" vertex="1">
          <mxGeometry x="230" y="300" width="480" height="210" as="geometry" />
        </mxCell>
        <mxCell id="MD2-rtIMPpAFqubzUFR5-2" value="" style="shape=partialRectangle;collapsible=0;dropTarget=0;pointerEvents=0;fillColor=none;top=0;left=0;bottom=1;right=0;points=[[0,0.5],[1,0.5]];portConstraint=eastwest;" parent="MD2-rtIMPpAFqubzUFR5-1" vertex="1">
          <mxGeometry y="30" width="480" height="30" as="geometry" />
        </mxCell>
        <mxCell id="MD2-rtIMPpAFqubzUFR5-3" value="" style="shape=partialRectangle;connectable=0;fillColor=none;top=0;left=0;bottom=0;right=0;fontStyle=1;overflow=hidden;" parent="MD2-rtIMPpAFqubzUFR5-2" vertex="1">
          <mxGeometry width="30" height="30" as="geometry" />
        </mxCell>
        <mxCell id="MD2-rtIMPpAFqubzUFR5-278" value="id" style="shape=partialRectangle;connectable=0;fillColor=none;top=0;left=0;bottom=0;right=0;align=left;spacingLeft=6;fontStyle=5;overflow=hidden;" parent="MD2-rtIMPpAFqubzUFR5-2" vertex="1">
          <mxGeometry x="30" width="150" height="30" as="geometry" />
        </mxCell>
        <mxCell id="MD2-rtIMPpAFqubzUFR5-4" value="사용자번호" style="shape=partialRectangle;connectable=0;fillColor=none;top=0;left=0;bottom=0;right=0;align=left;spacingLeft=6;fontStyle=5;overflow=hidden;" parent="MD2-rtIMPpAFqubzUFR5-2" vertex="1">
          <mxGeometry x="180" width="150" height="30" as="geometry" />
        </mxCell>
        <mxCell id="MD2-rtIMPpAFqubzUFR5-511" value="INT" style="shape=partialRectangle;connectable=0;fillColor=none;top=0;left=0;bottom=0;right=0;align=left;spacingLeft=6;fontStyle=5;overflow=hidden;" parent="MD2-rtIMPpAFqubzUFR5-2" vertex="1">
          <mxGeometry x="330" width="150" height="30" as="geometry" />
        </mxCell>
        <mxCell id="MD2-rtIMPpAFqubzUFR5-5" value="" style="shape=partialRectangle;collapsible=0;dropTarget=0;pointerEvents=0;fillColor=none;top=0;left=0;bottom=0;right=0;points=[[0,0.5],[1,0.5]];portConstraint=eastwest;" parent="MD2-rtIMPpAFqubzUFR5-1" vertex="1">
          <mxGeometry y="60" width="480" height="30" as="geometry" />
        </mxCell>
        <mxCell id="MD2-rtIMPpAFqubzUFR5-6" value="" style="shape=partialRectangle;connectable=0;fillColor=none;top=0;left=0;bottom=0;right=0;editable=1;overflow=hidden;" parent="MD2-rtIMPpAFqubzUFR5-5" vertex="1">
          <mxGeometry width="30" height="30" as="geometry" />
        </mxCell>
        <mxCell id="MD2-rtIMPpAFqubzUFR5-279" value="email" style="shape=partialRectangle;connectable=0;fillColor=none;top=0;left=0;bottom=0;right=0;align=left;spacingLeft=6;overflow=hidden;" parent="MD2-rtIMPpAFqubzUFR5-5" vertex="1">
          <mxGeometry x="30" width="150" height="30" as="geometry" />
        </mxCell>
        <mxCell id="MD2-rtIMPpAFqubzUFR5-7" value="구글계정" style="shape=partialRectangle;connectable=0;fillColor=none;top=0;left=0;bottom=0;right=0;align=left;spacingLeft=6;overflow=hidden;" parent="MD2-rtIMPpAFqubzUFR5-5" vertex="1">
          <mxGeometry x="180" width="150" height="30" as="geometry" />
        </mxCell>
        <mxCell id="MD2-rtIMPpAFqubzUFR5-512" value="String" style="shape=partialRectangle;connectable=0;fillColor=none;top=0;left=0;bottom=0;right=0;align=left;spacingLeft=6;overflow=hidden;" parent="MD2-rtIMPpAFqubzUFR5-5" vertex="1">
          <mxGeometry x="330" width="150" height="30" as="geometry" />
        </mxCell>
        <mxCell id="cf8r5tpqv3BlE3Bak3ng-1" style="shape=partialRectangle;collapsible=0;dropTarget=0;pointerEvents=0;fillColor=none;top=0;left=0;bottom=0;right=0;points=[[0,0.5],[1,0.5]];portConstraint=eastwest;" parent="MD2-rtIMPpAFqubzUFR5-1" vertex="1">
          <mxGeometry y="90" width="480" height="30" as="geometry" />
        </mxCell>
        <mxCell id="cf8r5tpqv3BlE3Bak3ng-2" style="shape=partialRectangle;connectable=0;fillColor=none;top=0;left=0;bottom=0;right=0;editable=1;overflow=hidden;" parent="cf8r5tpqv3BlE3Bak3ng-1" vertex="1">
          <mxGeometry width="30" height="30" as="geometry" />
        </mxCell>
        <mxCell id="cf8r5tpqv3BlE3Bak3ng-3" value="name" style="shape=partialRectangle;connectable=0;fillColor=none;top=0;left=0;bottom=0;right=0;align=left;spacingLeft=6;overflow=hidden;" parent="cf8r5tpqv3BlE3Bak3ng-1" vertex="1">
          <mxGeometry x="30" width="150" height="30" as="geometry" />
        </mxCell>
        <mxCell id="cf8r5tpqv3BlE3Bak3ng-4" value="닉네임" style="shape=partialRectangle;connectable=0;fillColor=none;top=0;left=0;bottom=0;right=0;align=left;spacingLeft=6;overflow=hidden;" parent="cf8r5tpqv3BlE3Bak3ng-1" vertex="1">
          <mxGeometry x="180" width="150" height="30" as="geometry" />
        </mxCell>
        <mxCell id="cf8r5tpqv3BlE3Bak3ng-5" value="String" style="shape=partialRectangle;connectable=0;fillColor=none;top=0;left=0;bottom=0;right=0;align=left;spacingLeft=6;overflow=hidden;" parent="cf8r5tpqv3BlE3Bak3ng-1" vertex="1">
          <mxGeometry x="330" width="150" height="30" as="geometry" />
        </mxCell>
        <mxCell id="XveR3DZq2OsxgKTt3ctt-17" style="shape=partialRectangle;collapsible=0;dropTarget=0;pointerEvents=0;fillColor=none;top=0;left=0;bottom=0;right=0;points=[[0,0.5],[1,0.5]];portConstraint=eastwest;" parent="MD2-rtIMPpAFqubzUFR5-1" vertex="1">
          <mxGeometry y="120" width="480" height="30" as="geometry" />
        </mxCell>
        <mxCell id="XveR3DZq2OsxgKTt3ctt-18" style="shape=partialRectangle;connectable=0;fillColor=none;top=0;left=0;bottom=0;right=0;editable=1;overflow=hidden;" parent="XveR3DZq2OsxgKTt3ctt-17" vertex="1">
          <mxGeometry width="30" height="30" as="geometry" />
        </mxCell>
        <mxCell id="XveR3DZq2OsxgKTt3ctt-19" value="image" style="shape=partialRectangle;connectable=0;fillColor=none;top=0;left=0;bottom=0;right=0;align=left;spacingLeft=6;overflow=hidden;" parent="XveR3DZq2OsxgKTt3ctt-17" vertex="1">
          <mxGeometry x="30" width="150" height="30" as="geometry" />
        </mxCell>
        <mxCell id="XveR3DZq2OsxgKTt3ctt-20" value="사용자이미지" style="shape=partialRectangle;connectable=0;fillColor=none;top=0;left=0;bottom=0;right=0;align=left;spacingLeft=6;overflow=hidden;" parent="XveR3DZq2OsxgKTt3ctt-17" vertex="1">
          <mxGeometry x="180" width="150" height="30" as="geometry" />
        </mxCell>
        <mxCell id="XveR3DZq2OsxgKTt3ctt-21" value="String" style="shape=partialRectangle;connectable=0;fillColor=none;top=0;left=0;bottom=0;right=0;align=left;spacingLeft=6;overflow=hidden;" parent="XveR3DZq2OsxgKTt3ctt-17" vertex="1">
          <mxGeometry x="330" width="150" height="30" as="geometry" />
        </mxCell>
        <mxCell id="MD2-rtIMPpAFqubzUFR5-11" value="" style="shape=partialRectangle;collapsible=0;dropTarget=0;pointerEvents=0;fillColor=none;top=0;left=0;bottom=0;right=0;points=[[0,0.5],[1,0.5]];portConstraint=eastwest;" parent="MD2-rtIMPpAFqubzUFR5-1" vertex="1">
          <mxGeometry y="150" width="480" height="30" as="geometry" />
        </mxCell>
        <mxCell id="MD2-rtIMPpAFqubzUFR5-12" value="" style="shape=partialRectangle;connectable=0;fillColor=none;top=0;left=0;bottom=0;right=0;editable=1;overflow=hidden;" parent="MD2-rtIMPpAFqubzUFR5-11" vertex="1">
          <mxGeometry width="30" height="30" as="geometry" />
        </mxCell>
        <mxCell id="MD2-rtIMPpAFqubzUFR5-281" value="level" style="shape=partialRectangle;connectable=0;fillColor=none;top=0;left=0;bottom=0;right=0;align=left;spacingLeft=6;overflow=hidden;" parent="MD2-rtIMPpAFqubzUFR5-11" vertex="1">
          <mxGeometry x="30" width="150" height="30" as="geometry" />
        </mxCell>
        <mxCell id="MD2-rtIMPpAFqubzUFR5-13" value="등급" style="shape=partialRectangle;connectable=0;fillColor=none;top=0;left=0;bottom=0;right=0;align=left;spacingLeft=6;overflow=hidden;" parent="MD2-rtIMPpAFqubzUFR5-11" vertex="1">
          <mxGeometry x="180" width="150" height="30" as="geometry" />
        </mxCell>
        <mxCell id="MD2-rtIMPpAFqubzUFR5-514" value="String" style="shape=partialRectangle;connectable=0;fillColor=none;top=0;left=0;bottom=0;right=0;align=left;spacingLeft=6;overflow=hidden;" parent="MD2-rtIMPpAFqubzUFR5-11" vertex="1">
          <mxGeometry x="330" width="150" height="30" as="geometry" />
        </mxCell>
        <mxCell id="MD2-rtIMPpAFqubzUFR5-80" style="shape=partialRectangle;collapsible=0;dropTarget=0;pointerEvents=0;fillColor=none;top=0;left=0;bottom=0;right=0;points=[[0,0.5],[1,0.5]];portConstraint=eastwest;" parent="MD2-rtIMPpAFqubzUFR5-1" vertex="1">
          <mxGeometry y="180" width="480" height="30" as="geometry" />
        </mxCell>
        <mxCell id="MD2-rtIMPpAFqubzUFR5-81" style="shape=partialRectangle;connectable=0;fillColor=none;top=0;left=0;bottom=0;right=0;editable=1;overflow=hidden;" parent="MD2-rtIMPpAFqubzUFR5-80" vertex="1">
          <mxGeometry width="30" height="30" as="geometry" />
        </mxCell>
        <mxCell id="MD2-rtIMPpAFqubzUFR5-282" value="points" style="shape=partialRectangle;connectable=0;fillColor=none;top=0;left=0;bottom=0;right=0;align=left;spacingLeft=6;overflow=hidden;" parent="MD2-rtIMPpAFqubzUFR5-80" vertex="1">
          <mxGeometry x="30" width="150" height="30" as="geometry" />
        </mxCell>
        <mxCell id="MD2-rtIMPpAFqubzUFR5-82" value="포인트" style="shape=partialRectangle;connectable=0;fillColor=none;top=0;left=0;bottom=0;right=0;align=left;spacingLeft=6;overflow=hidden;" parent="MD2-rtIMPpAFqubzUFR5-80" vertex="1">
          <mxGeometry x="180" width="150" height="30" as="geometry" />
        </mxCell>
        <mxCell id="MD2-rtIMPpAFqubzUFR5-515" value="INT" style="shape=partialRectangle;connectable=0;fillColor=none;top=0;left=0;bottom=0;right=0;align=left;spacingLeft=6;overflow=hidden;" parent="MD2-rtIMPpAFqubzUFR5-80" vertex="1">
          <mxGeometry x="330" width="150" height="30" as="geometry" />
        </mxCell>
        <mxCell id="MD2-rtIMPpAFqubzUFR5-18" value="tip_post" style="shape=table;startSize=30;container=1;collapsible=1;childLayout=tableLayout;fixedRows=1;rowLines=0;fontStyle=1;align=center;resizeLast=1;" parent="1" vertex="1">
          <mxGeometry x="-414" y="20" width="480" height="360" as="geometry" />
        </mxCell>
        <mxCell id="MD2-rtIMPpAFqubzUFR5-19" value="" style="shape=partialRectangle;collapsible=0;dropTarget=0;pointerEvents=0;fillColor=none;top=0;left=0;bottom=1;right=0;points=[[0,0.5],[1,0.5]];portConstraint=eastwest;" parent="MD2-rtIMPpAFqubzUFR5-18" vertex="1">
          <mxGeometry y="30" width="480" height="30" as="geometry" />
        </mxCell>
        <mxCell id="MD2-rtIMPpAFqubzUFR5-20" value="PK" style="shape=partialRectangle;connectable=0;fillColor=none;top=0;left=0;bottom=0;right=0;fontStyle=1;overflow=hidden;" parent="MD2-rtIMPpAFqubzUFR5-19" vertex="1">
          <mxGeometry width="30" height="30" as="geometry" />
        </mxCell>
        <mxCell id="MD2-rtIMPpAFqubzUFR5-268" value="id" style="shape=partialRectangle;connectable=0;fillColor=none;top=0;left=0;bottom=0;right=0;align=left;spacingLeft=6;fontStyle=5;overflow=hidden;" parent="MD2-rtIMPpAFqubzUFR5-19" vertex="1">
          <mxGeometry x="30" width="150" height="30" as="geometry" />
        </mxCell>
        <mxCell id="MD2-rtIMPpAFqubzUFR5-21" value="글번호" style="shape=partialRectangle;connectable=0;fillColor=none;top=0;left=0;bottom=0;right=0;align=left;spacingLeft=6;fontStyle=5;overflow=hidden;" parent="MD2-rtIMPpAFqubzUFR5-19" vertex="1">
          <mxGeometry x="180" width="150" height="30" as="geometry" />
        </mxCell>
        <mxCell id="MD2-rtIMPpAFqubzUFR5-486" value="INT" style="shape=partialRectangle;connectable=0;fillColor=none;top=0;left=0;bottom=0;right=0;align=left;spacingLeft=6;fontStyle=5;overflow=hidden;" parent="MD2-rtIMPpAFqubzUFR5-19" vertex="1">
          <mxGeometry x="330" width="150" height="30" as="geometry" />
        </mxCell>
        <mxCell id="cf8r5tpqv3BlE3Bak3ng-6" value="" style="shape=partialRectangle;collapsible=0;dropTarget=0;pointerEvents=0;fillColor=none;top=0;left=0;bottom=0;right=0;points=[[0,0.5],[1,0.5]];portConstraint=eastwest;" parent="MD2-rtIMPpAFqubzUFR5-18" vertex="1">
          <mxGeometry y="60" width="480" height="30" as="geometry" />
        </mxCell>
        <mxCell id="cf8r5tpqv3BlE3Bak3ng-7" value="" style="shape=partialRectangle;connectable=0;fillColor=none;top=0;left=0;bottom=0;right=0;editable=1;overflow=hidden;" parent="cf8r5tpqv3BlE3Bak3ng-6" vertex="1">
          <mxGeometry width="30" height="30" as="geometry" />
        </mxCell>
        <mxCell id="cf8r5tpqv3BlE3Bak3ng-8" value="user_id" style="shape=partialRectangle;connectable=0;fillColor=none;top=0;left=0;bottom=0;right=0;align=left;spacingLeft=6;overflow=hidden;" parent="cf8r5tpqv3BlE3Bak3ng-6" vertex="1">
          <mxGeometry x="30" width="150" height="30" as="geometry" />
        </mxCell>
        <mxCell id="cf8r5tpqv3BlE3Bak3ng-9" value="사용자번호" style="shape=partialRectangle;connectable=0;fillColor=none;top=0;left=0;bottom=0;right=0;align=left;spacingLeft=6;overflow=hidden;" parent="cf8r5tpqv3BlE3Bak3ng-6" vertex="1">
          <mxGeometry x="180" width="150" height="30" as="geometry" />
        </mxCell>
        <mxCell id="cf8r5tpqv3BlE3Bak3ng-10" value="INT" style="shape=partialRectangle;connectable=0;fillColor=none;top=0;left=0;bottom=0;right=0;align=left;spacingLeft=6;overflow=hidden;" parent="cf8r5tpqv3BlE3Bak3ng-6" vertex="1">
          <mxGeometry x="330" width="150" height="30" as="geometry" />
        </mxCell>
        <mxCell id="MD2-rtIMPpAFqubzUFR5-25" value="" style="shape=partialRectangle;collapsible=0;dropTarget=0;pointerEvents=0;fillColor=none;top=0;left=0;bottom=0;right=0;points=[[0,0.5],[1,0.5]];portConstraint=eastwest;" parent="MD2-rtIMPpAFqubzUFR5-18" vertex="1">
          <mxGeometry y="90" width="480" height="30" as="geometry" />
        </mxCell>
        <mxCell id="MD2-rtIMPpAFqubzUFR5-26" value="" style="shape=partialRectangle;connectable=0;fillColor=none;top=0;left=0;bottom=0;right=0;editable=1;overflow=hidden;" parent="MD2-rtIMPpAFqubzUFR5-25" vertex="1">
          <mxGeometry width="30" height="30" as="geometry" />
        </mxCell>
        <mxCell id="MD2-rtIMPpAFqubzUFR5-270" value="time" style="shape=partialRectangle;connectable=0;fillColor=none;top=0;left=0;bottom=0;right=0;align=left;spacingLeft=6;overflow=hidden;" parent="MD2-rtIMPpAFqubzUFR5-25" vertex="1">
          <mxGeometry x="30" width="150" height="30" as="geometry" />
        </mxCell>
        <mxCell id="MD2-rtIMPpAFqubzUFR5-27" value="작성일" style="shape=partialRectangle;connectable=0;fillColor=none;top=0;left=0;bottom=0;right=0;align=left;spacingLeft=6;overflow=hidden;" parent="MD2-rtIMPpAFqubzUFR5-25" vertex="1">
          <mxGeometry x="180" width="150" height="30" as="geometry" />
        </mxCell>
        <mxCell id="MD2-rtIMPpAFqubzUFR5-488" value="DATETIME" style="shape=partialRectangle;connectable=0;fillColor=none;top=0;left=0;bottom=0;right=0;align=left;spacingLeft=6;overflow=hidden;" parent="MD2-rtIMPpAFqubzUFR5-25" vertex="1">
          <mxGeometry x="330" width="150" height="30" as="geometry" />
        </mxCell>
        <mxCell id="MD2-rtIMPpAFqubzUFR5-28" value="" style="shape=partialRectangle;collapsible=0;dropTarget=0;pointerEvents=0;fillColor=none;top=0;left=0;bottom=0;right=0;points=[[0,0.5],[1,0.5]];portConstraint=eastwest;" parent="MD2-rtIMPpAFqubzUFR5-18" vertex="1">
          <mxGeometry y="120" width="480" height="30" as="geometry" />
        </mxCell>
        <mxCell id="MD2-rtIMPpAFqubzUFR5-29" value="" style="shape=partialRectangle;connectable=0;fillColor=none;top=0;left=0;bottom=0;right=0;editable=1;overflow=hidden;" parent="MD2-rtIMPpAFqubzUFR5-28" vertex="1">
          <mxGeometry width="30" height="30" as="geometry" />
        </mxCell>
        <mxCell id="MD2-rtIMPpAFqubzUFR5-271" value="edit_time" style="shape=partialRectangle;connectable=0;fillColor=none;top=0;left=0;bottom=0;right=0;align=left;spacingLeft=6;overflow=hidden;" parent="MD2-rtIMPpAFqubzUFR5-28" vertex="1">
          <mxGeometry x="30" width="150" height="30" as="geometry" />
        </mxCell>
        <mxCell id="MD2-rtIMPpAFqubzUFR5-30" value="수정일" style="shape=partialRectangle;connectable=0;fillColor=none;top=0;left=0;bottom=0;right=0;align=left;spacingLeft=6;overflow=hidden;" parent="MD2-rtIMPpAFqubzUFR5-28" vertex="1">
          <mxGeometry x="180" width="150" height="30" as="geometry" />
        </mxCell>
        <mxCell id="MD2-rtIMPpAFqubzUFR5-489" value="DATETIME" style="shape=partialRectangle;connectable=0;fillColor=none;top=0;left=0;bottom=0;right=0;align=left;spacingLeft=6;overflow=hidden;" parent="MD2-rtIMPpAFqubzUFR5-28" vertex="1">
          <mxGeometry x="330" width="150" height="30" as="geometry" />
        </mxCell>
        <mxCell id="MD2-rtIMPpAFqubzUFR5-83" style="shape=partialRectangle;collapsible=0;dropTarget=0;pointerEvents=0;fillColor=none;top=0;left=0;bottom=0;right=0;points=[[0,0.5],[1,0.5]];portConstraint=eastwest;" parent="MD2-rtIMPpAFqubzUFR5-18" vertex="1">
          <mxGeometry y="150" width="480" height="30" as="geometry" />
        </mxCell>
        <mxCell id="MD2-rtIMPpAFqubzUFR5-84" style="shape=partialRectangle;connectable=0;fillColor=none;top=0;left=0;bottom=0;right=0;editable=1;overflow=hidden;" parent="MD2-rtIMPpAFqubzUFR5-83" vertex="1">
          <mxGeometry width="30" height="30" as="geometry" />
        </mxCell>
        <mxCell id="MD2-rtIMPpAFqubzUFR5-272" value="title" style="shape=partialRectangle;connectable=0;fillColor=none;top=0;left=0;bottom=0;right=0;align=left;spacingLeft=6;overflow=hidden;" parent="MD2-rtIMPpAFqubzUFR5-83" vertex="1">
          <mxGeometry x="30" width="150" height="30" as="geometry" />
        </mxCell>
        <mxCell id="MD2-rtIMPpAFqubzUFR5-85" value="제목" style="shape=partialRectangle;connectable=0;fillColor=none;top=0;left=0;bottom=0;right=0;align=left;spacingLeft=6;overflow=hidden;" parent="MD2-rtIMPpAFqubzUFR5-83" vertex="1">
          <mxGeometry x="180" width="150" height="30" as="geometry" />
        </mxCell>
        <mxCell id="MD2-rtIMPpAFqubzUFR5-490" value="String" style="shape=partialRectangle;connectable=0;fillColor=none;top=0;left=0;bottom=0;right=0;align=left;spacingLeft=6;overflow=hidden;" parent="MD2-rtIMPpAFqubzUFR5-83" vertex="1">
          <mxGeometry x="330" width="150" height="30" as="geometry" />
        </mxCell>
        <mxCell id="MD2-rtIMPpAFqubzUFR5-86" style="shape=partialRectangle;collapsible=0;dropTarget=0;pointerEvents=0;fillColor=none;top=0;left=0;bottom=0;right=0;points=[[0,0.5],[1,0.5]];portConstraint=eastwest;" parent="MD2-rtIMPpAFqubzUFR5-18" vertex="1">
          <mxGeometry y="180" width="480" height="30" as="geometry" />
        </mxCell>
        <mxCell id="MD2-rtIMPpAFqubzUFR5-87" style="shape=partialRectangle;connectable=0;fillColor=none;top=0;left=0;bottom=0;right=0;editable=1;overflow=hidden;" parent="MD2-rtIMPpAFqubzUFR5-86" vertex="1">
          <mxGeometry width="30" height="30" as="geometry" />
        </mxCell>
        <mxCell id="MD2-rtIMPpAFqubzUFR5-273" value="contents" style="shape=partialRectangle;connectable=0;fillColor=none;top=0;left=0;bottom=0;right=0;align=left;spacingLeft=6;overflow=hidden;" parent="MD2-rtIMPpAFqubzUFR5-86" vertex="1">
          <mxGeometry x="30" width="150" height="30" as="geometry" />
        </mxCell>
        <mxCell id="MD2-rtIMPpAFqubzUFR5-88" value="내용" style="shape=partialRectangle;connectable=0;fillColor=none;top=0;left=0;bottom=0;right=0;align=left;spacingLeft=6;overflow=hidden;" parent="MD2-rtIMPpAFqubzUFR5-86" vertex="1">
          <mxGeometry x="180" width="150" height="30" as="geometry" />
        </mxCell>
        <mxCell id="MD2-rtIMPpAFqubzUFR5-491" value="String" style="shape=partialRectangle;connectable=0;fillColor=none;top=0;left=0;bottom=0;right=0;align=left;spacingLeft=6;overflow=hidden;" parent="MD2-rtIMPpAFqubzUFR5-86" vertex="1">
          <mxGeometry x="330" width="150" height="30" as="geometry" />
        </mxCell>
        <mxCell id="qXBr9dz6wmvR0xZSYaYj-1" style="shape=partialRectangle;collapsible=0;dropTarget=0;pointerEvents=0;fillColor=none;top=0;left=0;bottom=0;right=0;points=[[0,0.5],[1,0.5]];portConstraint=eastwest;" parent="MD2-rtIMPpAFqubzUFR5-18" vertex="1">
          <mxGeometry y="210" width="480" height="30" as="geometry" />
        </mxCell>
        <mxCell id="qXBr9dz6wmvR0xZSYaYj-2" style="shape=partialRectangle;connectable=0;fillColor=none;top=0;left=0;bottom=0;right=0;editable=1;overflow=hidden;" parent="qXBr9dz6wmvR0xZSYaYj-1" vertex="1">
          <mxGeometry width="30" height="30" as="geometry" />
        </mxCell>
        <mxCell id="qXBr9dz6wmvR0xZSYaYj-3" value="views" style="shape=partialRectangle;connectable=0;fillColor=none;top=0;left=0;bottom=0;right=0;align=left;spacingLeft=6;overflow=hidden;" parent="qXBr9dz6wmvR0xZSYaYj-1" vertex="1">
          <mxGeometry x="30" width="150" height="30" as="geometry" />
        </mxCell>
        <mxCell id="qXBr9dz6wmvR0xZSYaYj-4" value="조회수" style="shape=partialRectangle;connectable=0;fillColor=none;top=0;left=0;bottom=0;right=0;align=left;spacingLeft=6;overflow=hidden;" parent="qXBr9dz6wmvR0xZSYaYj-1" vertex="1">
          <mxGeometry x="180" width="150" height="30" as="geometry" />
        </mxCell>
        <mxCell id="qXBr9dz6wmvR0xZSYaYj-5" value="INT" style="shape=partialRectangle;connectable=0;fillColor=none;top=0;left=0;bottom=0;right=0;align=left;spacingLeft=6;overflow=hidden;" parent="qXBr9dz6wmvR0xZSYaYj-1" vertex="1">
          <mxGeometry x="330" width="150" height="30" as="geometry" />
        </mxCell>
        <mxCell id="nsHQNhk7Q4AftGqS9bct-1" style="shape=partialRectangle;collapsible=0;dropTarget=0;pointerEvents=0;fillColor=none;top=0;left=0;bottom=0;right=0;points=[[0,0.5],[1,0.5]];portConstraint=eastwest;" vertex="1" parent="MD2-rtIMPpAFqubzUFR5-18">
          <mxGeometry y="240" width="480" height="30" as="geometry" />
        </mxCell>
        <mxCell id="nsHQNhk7Q4AftGqS9bct-2" style="shape=partialRectangle;connectable=0;fillColor=none;top=0;left=0;bottom=0;right=0;editable=1;overflow=hidden;" vertex="1" parent="nsHQNhk7Q4AftGqS9bct-1">
          <mxGeometry width="30" height="30" as="geometry" />
        </mxCell>
        <mxCell id="nsHQNhk7Q4AftGqS9bct-3" value="thumbnail" style="shape=partialRectangle;connectable=0;fillColor=none;top=0;left=0;bottom=0;right=0;align=left;spacingLeft=6;overflow=hidden;" vertex="1" parent="nsHQNhk7Q4AftGqS9bct-1">
          <mxGeometry x="30" width="150" height="30" as="geometry" />
        </mxCell>
        <mxCell id="nsHQNhk7Q4AftGqS9bct-4" value="썸네일" style="shape=partialRectangle;connectable=0;fillColor=none;top=0;left=0;bottom=0;right=0;align=left;spacingLeft=6;overflow=hidden;" vertex="1" parent="nsHQNhk7Q4AftGqS9bct-1">
          <mxGeometry x="180" width="150" height="30" as="geometry" />
        </mxCell>
        <mxCell id="nsHQNhk7Q4AftGqS9bct-5" value="String" style="shape=partialRectangle;connectable=0;fillColor=none;top=0;left=0;bottom=0;right=0;align=left;spacingLeft=6;overflow=hidden;" vertex="1" parent="nsHQNhk7Q4AftGqS9bct-1">
          <mxGeometry x="330" width="150" height="30" as="geometry" />
        </mxCell>
        <mxCell id="MD2-rtIMPpAFqubzUFR5-89" style="shape=partialRectangle;collapsible=0;dropTarget=0;pointerEvents=0;fillColor=none;top=0;left=0;bottom=0;right=0;points=[[0,0.5],[1,0.5]];portConstraint=eastwest;" parent="MD2-rtIMPpAFqubzUFR5-18" vertex="1">
          <mxGeometry y="270" width="480" height="30" as="geometry" />
        </mxCell>
        <mxCell id="MD2-rtIMPpAFqubzUFR5-90" style="shape=partialRectangle;connectable=0;fillColor=none;top=0;left=0;bottom=0;right=0;editable=1;overflow=hidden;" parent="MD2-rtIMPpAFqubzUFR5-89" vertex="1">
          <mxGeometry width="30" height="30" as="geometry" />
        </mxCell>
        <mxCell id="MD2-rtIMPpAFqubzUFR5-274" value="image" style="shape=partialRectangle;connectable=0;fillColor=none;top=0;left=0;bottom=0;right=0;align=left;spacingLeft=6;overflow=hidden;" parent="MD2-rtIMPpAFqubzUFR5-89" vertex="1">
          <mxGeometry x="30" width="150" height="30" as="geometry" />
        </mxCell>
        <mxCell id="MD2-rtIMPpAFqubzUFR5-91" value="이미지" style="shape=partialRectangle;connectable=0;fillColor=none;top=0;left=0;bottom=0;right=0;align=left;spacingLeft=6;overflow=hidden;" parent="MD2-rtIMPpAFqubzUFR5-89" vertex="1">
          <mxGeometry x="180" width="150" height="30" as="geometry" />
        </mxCell>
        <mxCell id="MD2-rtIMPpAFqubzUFR5-492" value="String" style="shape=partialRectangle;connectable=0;fillColor=none;top=0;left=0;bottom=0;right=0;align=left;spacingLeft=6;overflow=hidden;" parent="MD2-rtIMPpAFqubzUFR5-89" vertex="1">
          <mxGeometry x="330" width="150" height="30" as="geometry" />
        </mxCell>
        <mxCell id="MD2-rtIMPpAFqubzUFR5-92" style="shape=partialRectangle;collapsible=0;dropTarget=0;pointerEvents=0;fillColor=none;top=0;left=0;bottom=0;right=0;points=[[0,0.5],[1,0.5]];portConstraint=eastwest;" parent="MD2-rtIMPpAFqubzUFR5-18" vertex="1">
          <mxGeometry y="300" width="480" height="30" as="geometry" />
        </mxCell>
        <mxCell id="MD2-rtIMPpAFqubzUFR5-93" style="shape=partialRectangle;connectable=0;fillColor=none;top=0;left=0;bottom=0;right=0;editable=1;overflow=hidden;" parent="MD2-rtIMPpAFqubzUFR5-92" vertex="1">
          <mxGeometry width="30" height="30" as="geometry" />
        </mxCell>
        <mxCell id="MD2-rtIMPpAFqubzUFR5-275" value="likes" style="shape=partialRectangle;connectable=0;fillColor=none;top=0;left=0;bottom=0;right=0;align=left;spacingLeft=6;overflow=hidden;" parent="MD2-rtIMPpAFqubzUFR5-92" vertex="1">
          <mxGeometry x="30" width="150" height="30" as="geometry" />
        </mxCell>
        <mxCell id="MD2-rtIMPpAFqubzUFR5-94" value="좋아요" style="shape=partialRectangle;connectable=0;fillColor=none;top=0;left=0;bottom=0;right=0;align=left;spacingLeft=6;overflow=hidden;" parent="MD2-rtIMPpAFqubzUFR5-92" vertex="1">
          <mxGeometry x="180" width="150" height="30" as="geometry" />
        </mxCell>
        <mxCell id="MD2-rtIMPpAFqubzUFR5-493" value="INT" style="shape=partialRectangle;connectable=0;fillColor=none;top=0;left=0;bottom=0;right=0;align=left;spacingLeft=6;overflow=hidden;" parent="MD2-rtIMPpAFqubzUFR5-92" vertex="1">
          <mxGeometry x="330" width="150" height="30" as="geometry" />
        </mxCell>
        <mxCell id="MD2-rtIMPpAFqubzUFR5-95" style="shape=partialRectangle;collapsible=0;dropTarget=0;pointerEvents=0;fillColor=none;top=0;left=0;bottom=0;right=0;points=[[0,0.5],[1,0.5]];portConstraint=eastwest;" parent="MD2-rtIMPpAFqubzUFR5-18" vertex="1">
          <mxGeometry y="330" width="480" height="30" as="geometry" />
        </mxCell>
        <mxCell id="MD2-rtIMPpAFqubzUFR5-96" style="shape=partialRectangle;connectable=0;fillColor=none;top=0;left=0;bottom=0;right=0;editable=1;overflow=hidden;" parent="MD2-rtIMPpAFqubzUFR5-95" vertex="1">
          <mxGeometry width="30" height="30" as="geometry" />
        </mxCell>
        <mxCell id="MD2-rtIMPpAFqubzUFR5-276" value="tags" style="shape=partialRectangle;connectable=0;fillColor=none;top=0;left=0;bottom=0;right=0;align=left;spacingLeft=6;overflow=hidden;" parent="MD2-rtIMPpAFqubzUFR5-95" vertex="1">
          <mxGeometry x="30" width="150" height="30" as="geometry" />
        </mxCell>
        <mxCell id="MD2-rtIMPpAFqubzUFR5-97" value="태그" style="shape=partialRectangle;connectable=0;fillColor=none;top=0;left=0;bottom=0;right=0;align=left;spacingLeft=6;overflow=hidden;" parent="MD2-rtIMPpAFqubzUFR5-95" vertex="1">
          <mxGeometry x="180" width="150" height="30" as="geometry" />
        </mxCell>
        <mxCell id="MD2-rtIMPpAFqubzUFR5-494" value="String" style="shape=partialRectangle;connectable=0;fillColor=none;top=0;left=0;bottom=0;right=0;align=left;spacingLeft=6;overflow=hidden;" parent="MD2-rtIMPpAFqubzUFR5-95" vertex="1">
          <mxGeometry x="330" width="150" height="30" as="geometry" />
        </mxCell>
        <mxCell id="MD2-rtIMPpAFqubzUFR5-126" value="comments" style="shape=table;startSize=30;container=1;collapsible=1;childLayout=tableLayout;fixedRows=1;rowLines=0;fontStyle=1;align=center;resizeLast=1;" parent="1" vertex="1">
          <mxGeometry x="236" y="20" width="480" height="240" as="geometry" />
        </mxCell>
        <mxCell id="MD2-rtIMPpAFqubzUFR5-127" value="" style="shape=partialRectangle;collapsible=0;dropTarget=0;pointerEvents=0;fillColor=none;top=0;left=0;bottom=1;right=0;points=[[0,0.5],[1,0.5]];portConstraint=eastwest;" parent="MD2-rtIMPpAFqubzUFR5-126" vertex="1">
          <mxGeometry y="30" width="480" height="30" as="geometry" />
        </mxCell>
        <mxCell id="MD2-rtIMPpAFqubzUFR5-128" value="PK" style="shape=partialRectangle;connectable=0;fillColor=none;top=0;left=0;bottom=0;right=0;fontStyle=1;overflow=hidden;" parent="MD2-rtIMPpAFqubzUFR5-127" vertex="1">
          <mxGeometry width="30" height="30" as="geometry" />
        </mxCell>
        <mxCell id="MD2-rtIMPpAFqubzUFR5-448" value="id" style="shape=partialRectangle;connectable=0;fillColor=none;top=0;left=0;bottom=0;right=0;align=left;spacingLeft=6;fontStyle=5;overflow=hidden;" parent="MD2-rtIMPpAFqubzUFR5-127" vertex="1">
          <mxGeometry x="30" width="150" height="30" as="geometry" />
        </mxCell>
        <mxCell id="MD2-rtIMPpAFqubzUFR5-129" value="id" style="shape=partialRectangle;connectable=0;fillColor=none;top=0;left=0;bottom=0;right=0;align=left;spacingLeft=6;fontStyle=5;overflow=hidden;" parent="MD2-rtIMPpAFqubzUFR5-127" vertex="1">
          <mxGeometry x="180" width="150" height="30" as="geometry" />
        </mxCell>
        <mxCell id="MD2-rtIMPpAFqubzUFR5-504" value="INT" style="shape=partialRectangle;connectable=0;fillColor=none;top=0;left=0;bottom=0;right=0;align=left;spacingLeft=6;fontStyle=5;overflow=hidden;" parent="MD2-rtIMPpAFqubzUFR5-127" vertex="1">
          <mxGeometry x="330" width="150" height="30" as="geometry" />
        </mxCell>
        <mxCell id="MD2-rtIMPpAFqubzUFR5-154" style="shape=partialRectangle;collapsible=0;dropTarget=0;pointerEvents=0;fillColor=none;top=0;left=0;bottom=0;right=0;points=[[0,0.5],[1,0.5]];portConstraint=eastwest;" parent="MD2-rtIMPpAFqubzUFR5-126" vertex="1">
          <mxGeometry y="60" width="480" height="30" as="geometry" />
        </mxCell>
        <mxCell id="MD2-rtIMPpAFqubzUFR5-155" style="shape=partialRectangle;connectable=0;fillColor=none;top=0;left=0;bottom=0;right=0;editable=1;overflow=hidden;" parent="MD2-rtIMPpAFqubzUFR5-154" vertex="1">
          <mxGeometry width="30" height="30" as="geometry" />
        </mxCell>
        <mxCell id="MD2-rtIMPpAFqubzUFR5-449" value="post_id" style="shape=partialRectangle;connectable=0;fillColor=none;top=0;left=0;bottom=0;right=0;align=left;spacingLeft=6;overflow=hidden;" parent="MD2-rtIMPpAFqubzUFR5-154" vertex="1">
          <mxGeometry x="30" width="150" height="30" as="geometry" />
        </mxCell>
        <mxCell id="MD2-rtIMPpAFqubzUFR5-156" value="글번호" style="shape=partialRectangle;connectable=0;fillColor=none;top=0;left=0;bottom=0;right=0;align=left;spacingLeft=6;overflow=hidden;" parent="MD2-rtIMPpAFqubzUFR5-154" vertex="1">
          <mxGeometry x="180" width="150" height="30" as="geometry" />
        </mxCell>
        <mxCell id="MD2-rtIMPpAFqubzUFR5-505" value="INT" style="shape=partialRectangle;connectable=0;fillColor=none;top=0;left=0;bottom=0;right=0;align=left;spacingLeft=6;overflow=hidden;" parent="MD2-rtIMPpAFqubzUFR5-154" vertex="1">
          <mxGeometry x="330" width="150" height="30" as="geometry" />
        </mxCell>
        <mxCell id="MD2-rtIMPpAFqubzUFR5-157" style="shape=partialRectangle;collapsible=0;dropTarget=0;pointerEvents=0;fillColor=none;top=0;left=0;bottom=0;right=0;points=[[0,0.5],[1,0.5]];portConstraint=eastwest;" parent="MD2-rtIMPpAFqubzUFR5-126" vertex="1">
          <mxGeometry y="90" width="480" height="30" as="geometry" />
        </mxCell>
        <mxCell id="MD2-rtIMPpAFqubzUFR5-158" style="shape=partialRectangle;connectable=0;fillColor=none;top=0;left=0;bottom=0;right=0;editable=1;overflow=hidden;" parent="MD2-rtIMPpAFqubzUFR5-157" vertex="1">
          <mxGeometry width="30" height="30" as="geometry" />
        </mxCell>
        <mxCell id="MD2-rtIMPpAFqubzUFR5-450" value="type_id" style="shape=partialRectangle;connectable=0;fillColor=none;top=0;left=0;bottom=0;right=0;align=left;spacingLeft=6;overflow=hidden;" parent="MD2-rtIMPpAFqubzUFR5-157" vertex="1">
          <mxGeometry x="30" width="150" height="30" as="geometry" />
        </mxCell>
        <mxCell id="MD2-rtIMPpAFqubzUFR5-159" value="글타입" style="shape=partialRectangle;connectable=0;fillColor=none;top=0;left=0;bottom=0;right=0;align=left;spacingLeft=6;overflow=hidden;" parent="MD2-rtIMPpAFqubzUFR5-157" vertex="1">
          <mxGeometry x="180" width="150" height="30" as="geometry" />
        </mxCell>
        <mxCell id="MD2-rtIMPpAFqubzUFR5-506" value="INT" style="shape=partialRectangle;connectable=0;fillColor=none;top=0;left=0;bottom=0;right=0;align=left;spacingLeft=6;overflow=hidden;" parent="MD2-rtIMPpAFqubzUFR5-157" vertex="1">
          <mxGeometry x="330" width="150" height="30" as="geometry" />
        </mxCell>
        <mxCell id="MD2-rtIMPpAFqubzUFR5-130" value="" style="shape=partialRectangle;collapsible=0;dropTarget=0;pointerEvents=0;fillColor=none;top=0;left=0;bottom=0;right=0;points=[[0,0.5],[1,0.5]];portConstraint=eastwest;" parent="MD2-rtIMPpAFqubzUFR5-126" vertex="1">
          <mxGeometry y="120" width="480" height="30" as="geometry" />
        </mxCell>
        <mxCell id="MD2-rtIMPpAFqubzUFR5-131" value="" style="shape=partialRectangle;connectable=0;fillColor=none;top=0;left=0;bottom=0;right=0;editable=1;overflow=hidden;" parent="MD2-rtIMPpAFqubzUFR5-130" vertex="1">
          <mxGeometry width="30" height="30" as="geometry" />
        </mxCell>
        <mxCell id="MD2-rtIMPpAFqubzUFR5-451" value="user_id" style="shape=partialRectangle;connectable=0;fillColor=none;top=0;left=0;bottom=0;right=0;align=left;spacingLeft=6;overflow=hidden;" parent="MD2-rtIMPpAFqubzUFR5-130" vertex="1">
          <mxGeometry x="30" width="150" height="30" as="geometry" />
        </mxCell>
        <mxCell id="MD2-rtIMPpAFqubzUFR5-132" value="user_id" style="shape=partialRectangle;connectable=0;fillColor=none;top=0;left=0;bottom=0;right=0;align=left;spacingLeft=6;overflow=hidden;" parent="MD2-rtIMPpAFqubzUFR5-130" vertex="1">
          <mxGeometry x="180" width="150" height="30" as="geometry" />
        </mxCell>
        <mxCell id="MD2-rtIMPpAFqubzUFR5-507" value="INT" style="shape=partialRectangle;connectable=0;fillColor=none;top=0;left=0;bottom=0;right=0;align=left;spacingLeft=6;overflow=hidden;" parent="MD2-rtIMPpAFqubzUFR5-130" vertex="1">
          <mxGeometry x="330" width="150" height="30" as="geometry" />
        </mxCell>
        <mxCell id="MD2-rtIMPpAFqubzUFR5-133" value="" style="shape=partialRectangle;collapsible=0;dropTarget=0;pointerEvents=0;fillColor=none;top=0;left=0;bottom=0;right=0;points=[[0,0.5],[1,0.5]];portConstraint=eastwest;" parent="MD2-rtIMPpAFqubzUFR5-126" vertex="1">
          <mxGeometry y="150" width="480" height="30" as="geometry" />
        </mxCell>
        <mxCell id="MD2-rtIMPpAFqubzUFR5-134" value="" style="shape=partialRectangle;connectable=0;fillColor=none;top=0;left=0;bottom=0;right=0;editable=1;overflow=hidden;" parent="MD2-rtIMPpAFqubzUFR5-133" vertex="1">
          <mxGeometry width="30" height="30" as="geometry" />
        </mxCell>
        <mxCell id="MD2-rtIMPpAFqubzUFR5-452" value="time" style="shape=partialRectangle;connectable=0;fillColor=none;top=0;left=0;bottom=0;right=0;align=left;spacingLeft=6;overflow=hidden;" parent="MD2-rtIMPpAFqubzUFR5-133" vertex="1">
          <mxGeometry x="30" width="150" height="30" as="geometry" />
        </mxCell>
        <mxCell id="MD2-rtIMPpAFqubzUFR5-135" value="작성일" style="shape=partialRectangle;connectable=0;fillColor=none;top=0;left=0;bottom=0;right=0;align=left;spacingLeft=6;overflow=hidden;" parent="MD2-rtIMPpAFqubzUFR5-133" vertex="1">
          <mxGeometry x="180" width="150" height="30" as="geometry" />
        </mxCell>
        <mxCell id="MD2-rtIMPpAFqubzUFR5-508" value="DATETIME" style="shape=partialRectangle;connectable=0;fillColor=none;top=0;left=0;bottom=0;right=0;align=left;spacingLeft=6;overflow=hidden;" parent="MD2-rtIMPpAFqubzUFR5-133" vertex="1">
          <mxGeometry x="330" width="150" height="30" as="geometry" />
        </mxCell>
        <mxCell id="MD2-rtIMPpAFqubzUFR5-136" value="" style="shape=partialRectangle;collapsible=0;dropTarget=0;pointerEvents=0;fillColor=none;top=0;left=0;bottom=0;right=0;points=[[0,0.5],[1,0.5]];portConstraint=eastwest;" parent="MD2-rtIMPpAFqubzUFR5-126" vertex="1">
          <mxGeometry y="180" width="480" height="30" as="geometry" />
        </mxCell>
        <mxCell id="MD2-rtIMPpAFqubzUFR5-137" value="" style="shape=partialRectangle;connectable=0;fillColor=none;top=0;left=0;bottom=0;right=0;editable=1;overflow=hidden;" parent="MD2-rtIMPpAFqubzUFR5-136" vertex="1">
          <mxGeometry width="30" height="30" as="geometry" />
        </mxCell>
        <mxCell id="MD2-rtIMPpAFqubzUFR5-453" value="edit_time" style="shape=partialRectangle;connectable=0;fillColor=none;top=0;left=0;bottom=0;right=0;align=left;spacingLeft=6;overflow=hidden;" parent="MD2-rtIMPpAFqubzUFR5-136" vertex="1">
          <mxGeometry x="30" width="150" height="30" as="geometry" />
        </mxCell>
        <mxCell id="MD2-rtIMPpAFqubzUFR5-138" value="수정일" style="shape=partialRectangle;connectable=0;fillColor=none;top=0;left=0;bottom=0;right=0;align=left;spacingLeft=6;overflow=hidden;" parent="MD2-rtIMPpAFqubzUFR5-136" vertex="1">
          <mxGeometry x="180" width="150" height="30" as="geometry" />
        </mxCell>
        <mxCell id="MD2-rtIMPpAFqubzUFR5-509" value="DATETIME" style="shape=partialRectangle;connectable=0;fillColor=none;top=0;left=0;bottom=0;right=0;align=left;spacingLeft=6;overflow=hidden;" parent="MD2-rtIMPpAFqubzUFR5-136" vertex="1">
          <mxGeometry x="330" width="150" height="30" as="geometry" />
        </mxCell>
        <mxCell id="MD2-rtIMPpAFqubzUFR5-142" style="shape=partialRectangle;collapsible=0;dropTarget=0;pointerEvents=0;fillColor=none;top=0;left=0;bottom=0;right=0;points=[[0,0.5],[1,0.5]];portConstraint=eastwest;" parent="MD2-rtIMPpAFqubzUFR5-126" vertex="1">
          <mxGeometry y="210" width="480" height="30" as="geometry" />
        </mxCell>
        <mxCell id="MD2-rtIMPpAFqubzUFR5-143" style="shape=partialRectangle;connectable=0;fillColor=none;top=0;left=0;bottom=0;right=0;editable=1;overflow=hidden;" parent="MD2-rtIMPpAFqubzUFR5-142" vertex="1">
          <mxGeometry width="30" height="30" as="geometry" />
        </mxCell>
        <mxCell id="MD2-rtIMPpAFqubzUFR5-454" value="contents" style="shape=partialRectangle;connectable=0;fillColor=none;top=0;left=0;bottom=0;right=0;align=left;spacingLeft=6;overflow=hidden;" parent="MD2-rtIMPpAFqubzUFR5-142" vertex="1">
          <mxGeometry x="30" width="150" height="30" as="geometry" />
        </mxCell>
        <mxCell id="MD2-rtIMPpAFqubzUFR5-144" value="내용" style="shape=partialRectangle;connectable=0;fillColor=none;top=0;left=0;bottom=0;right=0;align=left;spacingLeft=6;overflow=hidden;" parent="MD2-rtIMPpAFqubzUFR5-142" vertex="1">
          <mxGeometry x="180" width="150" height="30" as="geometry" />
        </mxCell>
        <mxCell id="MD2-rtIMPpAFqubzUFR5-510" value="String" style="shape=partialRectangle;connectable=0;fillColor=none;top=0;left=0;bottom=0;right=0;align=left;spacingLeft=6;overflow=hidden;" parent="MD2-rtIMPpAFqubzUFR5-142" vertex="1">
          <mxGeometry x="330" width="150" height="30" as="geometry" />
        </mxCell>
        <mxCell id="MD2-rtIMPpAFqubzUFR5-160" value="question" style="shape=table;startSize=30;container=1;collapsible=1;childLayout=tableLayout;fixedRows=1;rowLines=0;fontStyle=1;align=center;resizeLast=1;" parent="1" vertex="1">
          <mxGeometry x="250" y="610" width="480" height="300" as="geometry" />
        </mxCell>
        <mxCell id="MD2-rtIMPpAFqubzUFR5-161" value="" style="shape=partialRectangle;collapsible=0;dropTarget=0;pointerEvents=0;fillColor=none;top=0;left=0;bottom=1;right=0;points=[[0,0.5],[1,0.5]];portConstraint=eastwest;" parent="MD2-rtIMPpAFqubzUFR5-160" vertex="1">
          <mxGeometry y="30" width="480" height="30" as="geometry" />
        </mxCell>
        <mxCell id="MD2-rtIMPpAFqubzUFR5-162" value="PK" style="shape=partialRectangle;connectable=0;fillColor=none;top=0;left=0;bottom=0;right=0;fontStyle=1;overflow=hidden;" parent="MD2-rtIMPpAFqubzUFR5-161" vertex="1">
          <mxGeometry width="30" height="30" as="geometry" />
        </mxCell>
        <mxCell id="MD2-rtIMPpAFqubzUFR5-478" value="id" style="shape=partialRectangle;connectable=0;fillColor=none;top=0;left=0;bottom=0;right=0;align=left;spacingLeft=6;fontStyle=5;overflow=hidden;" parent="MD2-rtIMPpAFqubzUFR5-161" vertex="1">
          <mxGeometry x="30" width="150" height="30" as="geometry" />
        </mxCell>
        <mxCell id="MD2-rtIMPpAFqubzUFR5-163" value="id" style="shape=partialRectangle;connectable=0;fillColor=none;top=0;left=0;bottom=0;right=0;align=left;spacingLeft=6;fontStyle=5;overflow=hidden;" parent="MD2-rtIMPpAFqubzUFR5-161" vertex="1">
          <mxGeometry x="180" width="150" height="30" as="geometry" />
        </mxCell>
        <mxCell id="MD2-rtIMPpAFqubzUFR5-516" value="INT" style="shape=partialRectangle;connectable=0;fillColor=none;top=0;left=0;bottom=0;right=0;align=left;spacingLeft=6;fontStyle=5;overflow=hidden;" parent="MD2-rtIMPpAFqubzUFR5-161" vertex="1">
          <mxGeometry x="330" width="150" height="30" as="geometry" />
        </mxCell>
        <mxCell id="MD2-rtIMPpAFqubzUFR5-164" value="" style="shape=partialRectangle;collapsible=0;dropTarget=0;pointerEvents=0;fillColor=none;top=0;left=0;bottom=0;right=0;points=[[0,0.5],[1,0.5]];portConstraint=eastwest;" parent="MD2-rtIMPpAFqubzUFR5-160" vertex="1">
          <mxGeometry y="60" width="480" height="30" as="geometry" />
        </mxCell>
        <mxCell id="MD2-rtIMPpAFqubzUFR5-165" value="" style="shape=partialRectangle;connectable=0;fillColor=none;top=0;left=0;bottom=0;right=0;editable=1;overflow=hidden;" parent="MD2-rtIMPpAFqubzUFR5-164" vertex="1">
          <mxGeometry width="30" height="30" as="geometry" />
        </mxCell>
        <mxCell id="MD2-rtIMPpAFqubzUFR5-479" value="user_id" style="shape=partialRectangle;connectable=0;fillColor=none;top=0;left=0;bottom=0;right=0;align=left;spacingLeft=6;overflow=hidden;" parent="MD2-rtIMPpAFqubzUFR5-164" vertex="1">
          <mxGeometry x="30" width="150" height="30" as="geometry" />
        </mxCell>
        <mxCell id="MD2-rtIMPpAFqubzUFR5-166" value="사용자번호" style="shape=partialRectangle;connectable=0;fillColor=none;top=0;left=0;bottom=0;right=0;align=left;spacingLeft=6;overflow=hidden;" parent="MD2-rtIMPpAFqubzUFR5-164" vertex="1">
          <mxGeometry x="180" width="150" height="30" as="geometry" />
        </mxCell>
        <mxCell id="MD2-rtIMPpAFqubzUFR5-517" value="INT" style="shape=partialRectangle;connectable=0;fillColor=none;top=0;left=0;bottom=0;right=0;align=left;spacingLeft=6;overflow=hidden;" parent="MD2-rtIMPpAFqubzUFR5-164" vertex="1">
          <mxGeometry x="330" width="150" height="30" as="geometry" />
        </mxCell>
        <mxCell id="MD2-rtIMPpAFqubzUFR5-167" value="" style="shape=partialRectangle;collapsible=0;dropTarget=0;pointerEvents=0;fillColor=none;top=0;left=0;bottom=0;right=0;points=[[0,0.5],[1,0.5]];portConstraint=eastwest;" parent="MD2-rtIMPpAFqubzUFR5-160" vertex="1">
          <mxGeometry y="90" width="480" height="30" as="geometry" />
        </mxCell>
        <mxCell id="MD2-rtIMPpAFqubzUFR5-168" value="" style="shape=partialRectangle;connectable=0;fillColor=none;top=0;left=0;bottom=0;right=0;editable=1;overflow=hidden;" parent="MD2-rtIMPpAFqubzUFR5-167" vertex="1">
          <mxGeometry width="30" height="30" as="geometry" />
        </mxCell>
        <mxCell id="MD2-rtIMPpAFqubzUFR5-480" value="time" style="shape=partialRectangle;connectable=0;fillColor=none;top=0;left=0;bottom=0;right=0;align=left;spacingLeft=6;overflow=hidden;" parent="MD2-rtIMPpAFqubzUFR5-167" vertex="1">
          <mxGeometry x="30" width="150" height="30" as="geometry" />
        </mxCell>
        <mxCell id="MD2-rtIMPpAFqubzUFR5-169" value="작성일" style="shape=partialRectangle;connectable=0;fillColor=none;top=0;left=0;bottom=0;right=0;align=left;spacingLeft=6;overflow=hidden;" parent="MD2-rtIMPpAFqubzUFR5-167" vertex="1">
          <mxGeometry x="180" width="150" height="30" as="geometry" />
        </mxCell>
        <mxCell id="MD2-rtIMPpAFqubzUFR5-518" value="DATETIME" style="shape=partialRectangle;connectable=0;fillColor=none;top=0;left=0;bottom=0;right=0;align=left;spacingLeft=6;overflow=hidden;" parent="MD2-rtIMPpAFqubzUFR5-167" vertex="1">
          <mxGeometry x="330" width="150" height="30" as="geometry" />
        </mxCell>
        <mxCell id="MD2-rtIMPpAFqubzUFR5-170" value="" style="shape=partialRectangle;collapsible=0;dropTarget=0;pointerEvents=0;fillColor=none;top=0;left=0;bottom=0;right=0;points=[[0,0.5],[1,0.5]];portConstraint=eastwest;" parent="MD2-rtIMPpAFqubzUFR5-160" vertex="1">
          <mxGeometry y="120" width="480" height="30" as="geometry" />
        </mxCell>
        <mxCell id="MD2-rtIMPpAFqubzUFR5-171" value="" style="shape=partialRectangle;connectable=0;fillColor=none;top=0;left=0;bottom=0;right=0;editable=1;overflow=hidden;" parent="MD2-rtIMPpAFqubzUFR5-170" vertex="1">
          <mxGeometry width="30" height="30" as="geometry" />
        </mxCell>
        <mxCell id="MD2-rtIMPpAFqubzUFR5-481" value="edit_time" style="shape=partialRectangle;connectable=0;fillColor=none;top=0;left=0;bottom=0;right=0;align=left;spacingLeft=6;overflow=hidden;" parent="MD2-rtIMPpAFqubzUFR5-170" vertex="1">
          <mxGeometry x="30" width="150" height="30" as="geometry" />
        </mxCell>
        <mxCell id="MD2-rtIMPpAFqubzUFR5-172" value="수정일" style="shape=partialRectangle;connectable=0;fillColor=none;top=0;left=0;bottom=0;right=0;align=left;spacingLeft=6;overflow=hidden;" parent="MD2-rtIMPpAFqubzUFR5-170" vertex="1">
          <mxGeometry x="180" width="150" height="30" as="geometry" />
        </mxCell>
        <mxCell id="MD2-rtIMPpAFqubzUFR5-519" value="DATETIME" style="shape=partialRectangle;connectable=0;fillColor=none;top=0;left=0;bottom=0;right=0;align=left;spacingLeft=6;overflow=hidden;" parent="MD2-rtIMPpAFqubzUFR5-170" vertex="1">
          <mxGeometry x="330" width="150" height="30" as="geometry" />
        </mxCell>
        <mxCell id="Ak5lAXLYVuY5CHqK2pYT-6" style="shape=partialRectangle;collapsible=0;dropTarget=0;pointerEvents=0;fillColor=none;top=0;left=0;bottom=0;right=0;points=[[0,0.5],[1,0.5]];portConstraint=eastwest;" parent="MD2-rtIMPpAFqubzUFR5-160" vertex="1">
          <mxGeometry y="150" width="480" height="30" as="geometry" />
        </mxCell>
        <mxCell id="Ak5lAXLYVuY5CHqK2pYT-7" style="shape=partialRectangle;connectable=0;fillColor=none;top=0;left=0;bottom=0;right=0;editable=1;overflow=hidden;" parent="Ak5lAXLYVuY5CHqK2pYT-6" vertex="1">
          <mxGeometry width="30" height="30" as="geometry" />
        </mxCell>
        <mxCell id="Ak5lAXLYVuY5CHqK2pYT-8" value="title" style="shape=partialRectangle;connectable=0;fillColor=none;top=0;left=0;bottom=0;right=0;align=left;spacingLeft=6;overflow=hidden;" parent="Ak5lAXLYVuY5CHqK2pYT-6" vertex="1">
          <mxGeometry x="30" width="150" height="30" as="geometry" />
        </mxCell>
        <mxCell id="Ak5lAXLYVuY5CHqK2pYT-9" value="제목" style="shape=partialRectangle;connectable=0;fillColor=none;top=0;left=0;bottom=0;right=0;align=left;spacingLeft=6;overflow=hidden;" parent="Ak5lAXLYVuY5CHqK2pYT-6" vertex="1">
          <mxGeometry x="180" width="150" height="30" as="geometry" />
        </mxCell>
        <mxCell id="Ak5lAXLYVuY5CHqK2pYT-10" value="String" style="shape=partialRectangle;connectable=0;fillColor=none;top=0;left=0;bottom=0;right=0;align=left;spacingLeft=6;overflow=hidden;" parent="Ak5lAXLYVuY5CHqK2pYT-6" vertex="1">
          <mxGeometry x="330" width="150" height="30" as="geometry" />
        </mxCell>
        <mxCell id="MD2-rtIMPpAFqubzUFR5-176" style="shape=partialRectangle;collapsible=0;dropTarget=0;pointerEvents=0;fillColor=none;top=0;left=0;bottom=0;right=0;points=[[0,0.5],[1,0.5]];portConstraint=eastwest;" parent="MD2-rtIMPpAFqubzUFR5-160" vertex="1">
          <mxGeometry y="180" width="480" height="30" as="geometry" />
        </mxCell>
        <mxCell id="MD2-rtIMPpAFqubzUFR5-177" style="shape=partialRectangle;connectable=0;fillColor=none;top=0;left=0;bottom=0;right=0;editable=1;overflow=hidden;" parent="MD2-rtIMPpAFqubzUFR5-176" vertex="1">
          <mxGeometry width="30" height="30" as="geometry" />
        </mxCell>
        <mxCell id="MD2-rtIMPpAFqubzUFR5-482" value="contents" style="shape=partialRectangle;connectable=0;fillColor=none;top=0;left=0;bottom=0;right=0;align=left;spacingLeft=6;overflow=hidden;" parent="MD2-rtIMPpAFqubzUFR5-176" vertex="1">
          <mxGeometry x="30" width="150" height="30" as="geometry" />
        </mxCell>
        <mxCell id="MD2-rtIMPpAFqubzUFR5-178" value="내용" style="shape=partialRectangle;connectable=0;fillColor=none;top=0;left=0;bottom=0;right=0;align=left;spacingLeft=6;overflow=hidden;" parent="MD2-rtIMPpAFqubzUFR5-176" vertex="1">
          <mxGeometry x="180" width="150" height="30" as="geometry" />
        </mxCell>
        <mxCell id="MD2-rtIMPpAFqubzUFR5-520" value="String" style="shape=partialRectangle;connectable=0;fillColor=none;top=0;left=0;bottom=0;right=0;align=left;spacingLeft=6;overflow=hidden;" parent="MD2-rtIMPpAFqubzUFR5-176" vertex="1">
          <mxGeometry x="330" width="150" height="30" as="geometry" />
        </mxCell>
        <mxCell id="qXBr9dz6wmvR0xZSYaYj-11" style="shape=partialRectangle;collapsible=0;dropTarget=0;pointerEvents=0;fillColor=none;top=0;left=0;bottom=0;right=0;points=[[0,0.5],[1,0.5]];portConstraint=eastwest;" parent="MD2-rtIMPpAFqubzUFR5-160" vertex="1">
          <mxGeometry y="210" width="480" height="30" as="geometry" />
        </mxCell>
        <mxCell id="qXBr9dz6wmvR0xZSYaYj-12" style="shape=partialRectangle;connectable=0;fillColor=none;top=0;left=0;bottom=0;right=0;editable=1;overflow=hidden;" parent="qXBr9dz6wmvR0xZSYaYj-11" vertex="1">
          <mxGeometry width="30" height="30" as="geometry" />
        </mxCell>
        <mxCell id="qXBr9dz6wmvR0xZSYaYj-13" value="views" style="shape=partialRectangle;connectable=0;fillColor=none;top=0;left=0;bottom=0;right=0;align=left;spacingLeft=6;overflow=hidden;" parent="qXBr9dz6wmvR0xZSYaYj-11" vertex="1">
          <mxGeometry x="30" width="150" height="30" as="geometry" />
        </mxCell>
        <mxCell id="qXBr9dz6wmvR0xZSYaYj-14" value="조회수" style="shape=partialRectangle;connectable=0;fillColor=none;top=0;left=0;bottom=0;right=0;align=left;spacingLeft=6;overflow=hidden;" parent="qXBr9dz6wmvR0xZSYaYj-11" vertex="1">
          <mxGeometry x="180" width="150" height="30" as="geometry" />
        </mxCell>
        <mxCell id="qXBr9dz6wmvR0xZSYaYj-15" value="INT" style="shape=partialRectangle;connectable=0;fillColor=none;top=0;left=0;bottom=0;right=0;align=left;spacingLeft=6;overflow=hidden;" parent="qXBr9dz6wmvR0xZSYaYj-11" vertex="1">
          <mxGeometry x="330" width="150" height="30" as="geometry" />
        </mxCell>
        <mxCell id="MD2-rtIMPpAFqubzUFR5-182" style="shape=partialRectangle;collapsible=0;dropTarget=0;pointerEvents=0;fillColor=none;top=0;left=0;bottom=0;right=0;points=[[0,0.5],[1,0.5]];portConstraint=eastwest;" parent="MD2-rtIMPpAFqubzUFR5-160" vertex="1">
          <mxGeometry y="240" width="480" height="30" as="geometry" />
        </mxCell>
        <mxCell id="MD2-rtIMPpAFqubzUFR5-183" style="shape=partialRectangle;connectable=0;fillColor=none;top=0;left=0;bottom=0;right=0;editable=1;overflow=hidden;" parent="MD2-rtIMPpAFqubzUFR5-182" vertex="1">
          <mxGeometry width="30" height="30" as="geometry" />
        </mxCell>
        <mxCell id="MD2-rtIMPpAFqubzUFR5-484" value="image" style="shape=partialRectangle;connectable=0;fillColor=none;top=0;left=0;bottom=0;right=0;align=left;spacingLeft=6;overflow=hidden;" parent="MD2-rtIMPpAFqubzUFR5-182" vertex="1">
          <mxGeometry x="30" width="150" height="30" as="geometry" />
        </mxCell>
        <mxCell id="MD2-rtIMPpAFqubzUFR5-184" value="사진" style="shape=partialRectangle;connectable=0;fillColor=none;top=0;left=0;bottom=0;right=0;align=left;spacingLeft=6;overflow=hidden;" parent="MD2-rtIMPpAFqubzUFR5-182" vertex="1">
          <mxGeometry x="180" width="150" height="30" as="geometry" />
        </mxCell>
        <mxCell id="MD2-rtIMPpAFqubzUFR5-522" value="String" style="shape=partialRectangle;connectable=0;fillColor=none;top=0;left=0;bottom=0;right=0;align=left;spacingLeft=6;overflow=hidden;" parent="MD2-rtIMPpAFqubzUFR5-182" vertex="1">
          <mxGeometry x="330" width="150" height="30" as="geometry" />
        </mxCell>
        <mxCell id="Ak5lAXLYVuY5CHqK2pYT-1" style="shape=partialRectangle;collapsible=0;dropTarget=0;pointerEvents=0;fillColor=none;top=0;left=0;bottom=0;right=0;points=[[0,0.5],[1,0.5]];portConstraint=eastwest;" parent="MD2-rtIMPpAFqubzUFR5-160" vertex="1">
          <mxGeometry y="270" width="480" height="30" as="geometry" />
        </mxCell>
        <mxCell id="Ak5lAXLYVuY5CHqK2pYT-2" style="shape=partialRectangle;connectable=0;fillColor=none;top=0;left=0;bottom=0;right=0;editable=1;overflow=hidden;" parent="Ak5lAXLYVuY5CHqK2pYT-1" vertex="1">
          <mxGeometry width="30" height="30" as="geometry" />
        </mxCell>
        <mxCell id="Ak5lAXLYVuY5CHqK2pYT-3" value="tags" style="shape=partialRectangle;connectable=0;fillColor=none;top=0;left=0;bottom=0;right=0;align=left;spacingLeft=6;overflow=hidden;" parent="Ak5lAXLYVuY5CHqK2pYT-1" vertex="1">
          <mxGeometry x="30" width="150" height="30" as="geometry" />
        </mxCell>
        <mxCell id="Ak5lAXLYVuY5CHqK2pYT-4" value="태그" style="shape=partialRectangle;connectable=0;fillColor=none;top=0;left=0;bottom=0;right=0;align=left;spacingLeft=6;overflow=hidden;" parent="Ak5lAXLYVuY5CHqK2pYT-1" vertex="1">
          <mxGeometry x="180" width="150" height="30" as="geometry" />
        </mxCell>
        <mxCell id="Ak5lAXLYVuY5CHqK2pYT-5" value="String" style="shape=partialRectangle;connectable=0;fillColor=none;top=0;left=0;bottom=0;right=0;align=left;spacingLeft=6;overflow=hidden;" parent="Ak5lAXLYVuY5CHqK2pYT-1" vertex="1">
          <mxGeometry x="330" width="150" height="30" as="geometry" />
        </mxCell>
        <mxCell id="MD2-rtIMPpAFqubzUFR5-188" value="together" style="shape=table;startSize=30;container=1;collapsible=1;childLayout=tableLayout;fixedRows=1;rowLines=0;fontStyle=1;align=center;resizeLast=1;" parent="1" vertex="1">
          <mxGeometry x="1490" y="840" width="480" height="300" as="geometry" />
        </mxCell>
        <mxCell id="MD2-rtIMPpAFqubzUFR5-189" value="" style="shape=partialRectangle;collapsible=0;dropTarget=0;pointerEvents=0;fillColor=none;top=0;left=0;bottom=1;right=0;points=[[0,0.5],[1,0.5]];portConstraint=eastwest;" parent="MD2-rtIMPpAFqubzUFR5-188" vertex="1">
          <mxGeometry y="30" width="480" height="30" as="geometry" />
        </mxCell>
        <mxCell id="MD2-rtIMPpAFqubzUFR5-190" value="PK" style="shape=partialRectangle;connectable=0;fillColor=none;top=0;left=0;bottom=0;right=0;fontStyle=1;overflow=hidden;" parent="MD2-rtIMPpAFqubzUFR5-189" vertex="1">
          <mxGeometry width="30" height="30" as="geometry" />
        </mxCell>
        <mxCell id="MD2-rtIMPpAFqubzUFR5-469" value="id" style="shape=partialRectangle;connectable=0;fillColor=none;top=0;left=0;bottom=0;right=0;align=left;spacingLeft=6;fontStyle=5;overflow=hidden;" parent="MD2-rtIMPpAFqubzUFR5-189" vertex="1">
          <mxGeometry x="30" width="150" height="30" as="geometry" />
        </mxCell>
        <mxCell id="MD2-rtIMPpAFqubzUFR5-191" value="id" style="shape=partialRectangle;connectable=0;fillColor=none;top=0;left=0;bottom=0;right=0;align=left;spacingLeft=6;fontStyle=5;overflow=hidden;" parent="MD2-rtIMPpAFqubzUFR5-189" vertex="1">
          <mxGeometry x="180" width="150" height="30" as="geometry" />
        </mxCell>
        <mxCell id="MD2-rtIMPpAFqubzUFR5-523" value="INT" style="shape=partialRectangle;connectable=0;fillColor=none;top=0;left=0;bottom=0;right=0;align=left;spacingLeft=6;fontStyle=5;overflow=hidden;" parent="MD2-rtIMPpAFqubzUFR5-189" vertex="1">
          <mxGeometry x="330" width="150" height="30" as="geometry" />
        </mxCell>
        <mxCell id="MD2-rtIMPpAFqubzUFR5-192" value="" style="shape=partialRectangle;collapsible=0;dropTarget=0;pointerEvents=0;fillColor=none;top=0;left=0;bottom=0;right=0;points=[[0,0.5],[1,0.5]];portConstraint=eastwest;" parent="MD2-rtIMPpAFqubzUFR5-188" vertex="1">
          <mxGeometry y="60" width="480" height="30" as="geometry" />
        </mxCell>
        <mxCell id="MD2-rtIMPpAFqubzUFR5-193" value="" style="shape=partialRectangle;connectable=0;fillColor=none;top=0;left=0;bottom=0;right=0;editable=1;overflow=hidden;" parent="MD2-rtIMPpAFqubzUFR5-192" vertex="1">
          <mxGeometry width="30" height="30" as="geometry" />
        </mxCell>
        <mxCell id="MD2-rtIMPpAFqubzUFR5-470" value="user_id" style="shape=partialRectangle;connectable=0;fillColor=none;top=0;left=0;bottom=0;right=0;align=left;spacingLeft=6;overflow=hidden;" parent="MD2-rtIMPpAFqubzUFR5-192" vertex="1">
          <mxGeometry x="30" width="150" height="30" as="geometry" />
        </mxCell>
        <mxCell id="MD2-rtIMPpAFqubzUFR5-194" value="user_id" style="shape=partialRectangle;connectable=0;fillColor=none;top=0;left=0;bottom=0;right=0;align=left;spacingLeft=6;overflow=hidden;" parent="MD2-rtIMPpAFqubzUFR5-192" vertex="1">
          <mxGeometry x="180" width="150" height="30" as="geometry" />
        </mxCell>
        <mxCell id="MD2-rtIMPpAFqubzUFR5-524" value="INT" style="shape=partialRectangle;connectable=0;fillColor=none;top=0;left=0;bottom=0;right=0;align=left;spacingLeft=6;overflow=hidden;" parent="MD2-rtIMPpAFqubzUFR5-192" vertex="1">
          <mxGeometry x="330" width="150" height="30" as="geometry" />
        </mxCell>
        <mxCell id="MD2-rtIMPpAFqubzUFR5-195" value="" style="shape=partialRectangle;collapsible=0;dropTarget=0;pointerEvents=0;fillColor=none;top=0;left=0;bottom=0;right=0;points=[[0,0.5],[1,0.5]];portConstraint=eastwest;" parent="MD2-rtIMPpAFqubzUFR5-188" vertex="1">
          <mxGeometry y="90" width="480" height="30" as="geometry" />
        </mxCell>
        <mxCell id="MD2-rtIMPpAFqubzUFR5-196" value="" style="shape=partialRectangle;connectable=0;fillColor=none;top=0;left=0;bottom=0;right=0;editable=1;overflow=hidden;" parent="MD2-rtIMPpAFqubzUFR5-195" vertex="1">
          <mxGeometry width="30" height="30" as="geometry" />
        </mxCell>
        <mxCell id="MD2-rtIMPpAFqubzUFR5-471" value="time" style="shape=partialRectangle;connectable=0;fillColor=none;top=0;left=0;bottom=0;right=0;align=left;spacingLeft=6;overflow=hidden;" parent="MD2-rtIMPpAFqubzUFR5-195" vertex="1">
          <mxGeometry x="30" width="150" height="30" as="geometry" />
        </mxCell>
        <mxCell id="MD2-rtIMPpAFqubzUFR5-197" value="작성일" style="shape=partialRectangle;connectable=0;fillColor=none;top=0;left=0;bottom=0;right=0;align=left;spacingLeft=6;overflow=hidden;" parent="MD2-rtIMPpAFqubzUFR5-195" vertex="1">
          <mxGeometry x="180" width="150" height="30" as="geometry" />
        </mxCell>
        <mxCell id="MD2-rtIMPpAFqubzUFR5-525" value="DATETIME" style="shape=partialRectangle;connectable=0;fillColor=none;top=0;left=0;bottom=0;right=0;align=left;spacingLeft=6;overflow=hidden;" parent="MD2-rtIMPpAFqubzUFR5-195" vertex="1">
          <mxGeometry x="330" width="150" height="30" as="geometry" />
        </mxCell>
        <mxCell id="MD2-rtIMPpAFqubzUFR5-198" value="" style="shape=partialRectangle;collapsible=0;dropTarget=0;pointerEvents=0;fillColor=none;top=0;left=0;bottom=0;right=0;points=[[0,0.5],[1,0.5]];portConstraint=eastwest;" parent="MD2-rtIMPpAFqubzUFR5-188" vertex="1">
          <mxGeometry y="120" width="480" height="30" as="geometry" />
        </mxCell>
        <mxCell id="MD2-rtIMPpAFqubzUFR5-199" value="" style="shape=partialRectangle;connectable=0;fillColor=none;top=0;left=0;bottom=0;right=0;editable=1;overflow=hidden;" parent="MD2-rtIMPpAFqubzUFR5-198" vertex="1">
          <mxGeometry width="30" height="30" as="geometry" />
        </mxCell>
        <mxCell id="MD2-rtIMPpAFqubzUFR5-472" value="edit_time" style="shape=partialRectangle;connectable=0;fillColor=none;top=0;left=0;bottom=0;right=0;align=left;spacingLeft=6;overflow=hidden;" parent="MD2-rtIMPpAFqubzUFR5-198" vertex="1">
          <mxGeometry x="30" width="150" height="30" as="geometry" />
        </mxCell>
        <mxCell id="MD2-rtIMPpAFqubzUFR5-200" value="수정일" style="shape=partialRectangle;connectable=0;fillColor=none;top=0;left=0;bottom=0;right=0;align=left;spacingLeft=6;overflow=hidden;" parent="MD2-rtIMPpAFqubzUFR5-198" vertex="1">
          <mxGeometry x="180" width="150" height="30" as="geometry" />
        </mxCell>
        <mxCell id="MD2-rtIMPpAFqubzUFR5-526" value="DATETIME" style="shape=partialRectangle;connectable=0;fillColor=none;top=0;left=0;bottom=0;right=0;align=left;spacingLeft=6;overflow=hidden;" parent="MD2-rtIMPpAFqubzUFR5-198" vertex="1">
          <mxGeometry x="330" width="150" height="30" as="geometry" />
        </mxCell>
        <mxCell id="MD2-rtIMPpAFqubzUFR5-201" style="shape=partialRectangle;collapsible=0;dropTarget=0;pointerEvents=0;fillColor=none;top=0;left=0;bottom=0;right=0;points=[[0,0.5],[1,0.5]];portConstraint=eastwest;" parent="MD2-rtIMPpAFqubzUFR5-188" vertex="1">
          <mxGeometry y="150" width="480" height="30" as="geometry" />
        </mxCell>
        <mxCell id="MD2-rtIMPpAFqubzUFR5-202" style="shape=partialRectangle;connectable=0;fillColor=none;top=0;left=0;bottom=0;right=0;editable=1;overflow=hidden;" parent="MD2-rtIMPpAFqubzUFR5-201" vertex="1">
          <mxGeometry width="30" height="30" as="geometry" />
        </mxCell>
        <mxCell id="MD2-rtIMPpAFqubzUFR5-473" value="contents" style="shape=partialRectangle;connectable=0;fillColor=none;top=0;left=0;bottom=0;right=0;align=left;spacingLeft=6;overflow=hidden;" parent="MD2-rtIMPpAFqubzUFR5-201" vertex="1">
          <mxGeometry x="30" width="150" height="30" as="geometry" />
        </mxCell>
        <mxCell id="MD2-rtIMPpAFqubzUFR5-203" value="내용" style="shape=partialRectangle;connectable=0;fillColor=none;top=0;left=0;bottom=0;right=0;align=left;spacingLeft=6;overflow=hidden;" parent="MD2-rtIMPpAFqubzUFR5-201" vertex="1">
          <mxGeometry x="180" width="150" height="30" as="geometry" />
        </mxCell>
        <mxCell id="MD2-rtIMPpAFqubzUFR5-527" value="String" style="shape=partialRectangle;connectable=0;fillColor=none;top=0;left=0;bottom=0;right=0;align=left;spacingLeft=6;overflow=hidden;" parent="MD2-rtIMPpAFqubzUFR5-201" vertex="1">
          <mxGeometry x="330" width="150" height="30" as="geometry" />
        </mxCell>
        <mxCell id="MD2-rtIMPpAFqubzUFR5-210" style="shape=partialRectangle;collapsible=0;dropTarget=0;pointerEvents=0;fillColor=none;top=0;left=0;bottom=0;right=0;points=[[0,0.5],[1,0.5]];portConstraint=eastwest;" parent="MD2-rtIMPpAFqubzUFR5-188" vertex="1">
          <mxGeometry y="180" width="480" height="30" as="geometry" />
        </mxCell>
        <mxCell id="MD2-rtIMPpAFqubzUFR5-211" style="shape=partialRectangle;connectable=0;fillColor=none;top=0;left=0;bottom=0;right=0;editable=1;overflow=hidden;" parent="MD2-rtIMPpAFqubzUFR5-210" vertex="1">
          <mxGeometry width="30" height="30" as="geometry" />
        </mxCell>
        <mxCell id="MD2-rtIMPpAFqubzUFR5-474" value="with" style="shape=partialRectangle;connectable=0;fillColor=none;top=0;left=0;bottom=0;right=0;align=left;spacingLeft=6;overflow=hidden;" parent="MD2-rtIMPpAFqubzUFR5-210" vertex="1">
          <mxGeometry x="30" width="150" height="30" as="geometry" />
        </mxCell>
        <mxCell id="MD2-rtIMPpAFqubzUFR5-212" value="같이하고싶은 이웃" style="shape=partialRectangle;connectable=0;fillColor=none;top=0;left=0;bottom=0;right=0;align=left;spacingLeft=6;overflow=hidden;" parent="MD2-rtIMPpAFqubzUFR5-210" vertex="1">
          <mxGeometry x="180" width="150" height="30" as="geometry" />
        </mxCell>
        <mxCell id="MD2-rtIMPpAFqubzUFR5-528" value="String" style="shape=partialRectangle;connectable=0;fillColor=none;top=0;left=0;bottom=0;right=0;align=left;spacingLeft=6;overflow=hidden;" parent="MD2-rtIMPpAFqubzUFR5-210" vertex="1">
          <mxGeometry x="330" width="150" height="30" as="geometry" />
        </mxCell>
        <mxCell id="MD2-rtIMPpAFqubzUFR5-213" style="shape=partialRectangle;collapsible=0;dropTarget=0;pointerEvents=0;fillColor=none;top=0;left=0;bottom=0;right=0;points=[[0,0.5],[1,0.5]];portConstraint=eastwest;" parent="MD2-rtIMPpAFqubzUFR5-188" vertex="1">
          <mxGeometry y="210" width="480" height="30" as="geometry" />
        </mxCell>
        <mxCell id="MD2-rtIMPpAFqubzUFR5-214" style="shape=partialRectangle;connectable=0;fillColor=none;top=0;left=0;bottom=0;right=0;editable=1;overflow=hidden;" parent="MD2-rtIMPpAFqubzUFR5-213" vertex="1">
          <mxGeometry width="30" height="30" as="geometry" />
        </mxCell>
        <mxCell id="MD2-rtIMPpAFqubzUFR5-475" value="participants" style="shape=partialRectangle;connectable=0;fillColor=none;top=0;left=0;bottom=0;right=0;align=left;spacingLeft=6;overflow=hidden;" parent="MD2-rtIMPpAFqubzUFR5-213" vertex="1">
          <mxGeometry x="30" width="150" height="30" as="geometry" />
        </mxCell>
        <mxCell id="MD2-rtIMPpAFqubzUFR5-215" value="참여인원" style="shape=partialRectangle;connectable=0;fillColor=none;top=0;left=0;bottom=0;right=0;align=left;spacingLeft=6;overflow=hidden;" parent="MD2-rtIMPpAFqubzUFR5-213" vertex="1">
          <mxGeometry x="180" width="150" height="30" as="geometry" />
        </mxCell>
        <mxCell id="MD2-rtIMPpAFqubzUFR5-529" value="INT" style="shape=partialRectangle;connectable=0;fillColor=none;top=0;left=0;bottom=0;right=0;align=left;spacingLeft=6;overflow=hidden;" parent="MD2-rtIMPpAFqubzUFR5-213" vertex="1">
          <mxGeometry x="330" width="150" height="30" as="geometry" />
        </mxCell>
        <mxCell id="MD2-rtIMPpAFqubzUFR5-204" style="shape=partialRectangle;collapsible=0;dropTarget=0;pointerEvents=0;fillColor=none;top=0;left=0;bottom=0;right=0;points=[[0,0.5],[1,0.5]];portConstraint=eastwest;" parent="MD2-rtIMPpAFqubzUFR5-188" vertex="1">
          <mxGeometry y="240" width="480" height="30" as="geometry" />
        </mxCell>
        <mxCell id="MD2-rtIMPpAFqubzUFR5-205" style="shape=partialRectangle;connectable=0;fillColor=none;top=0;left=0;bottom=0;right=0;editable=1;overflow=hidden;" parent="MD2-rtIMPpAFqubzUFR5-204" vertex="1">
          <mxGeometry width="30" height="30" as="geometry" />
        </mxCell>
        <mxCell id="MD2-rtIMPpAFqubzUFR5-476" value="place" style="shape=partialRectangle;connectable=0;fillColor=none;top=0;left=0;bottom=0;right=0;align=left;spacingLeft=6;overflow=hidden;" parent="MD2-rtIMPpAFqubzUFR5-204" vertex="1">
          <mxGeometry x="30" width="150" height="30" as="geometry" />
        </mxCell>
        <mxCell id="MD2-rtIMPpAFqubzUFR5-206" value="위치" style="shape=partialRectangle;connectable=0;fillColor=none;top=0;left=0;bottom=0;right=0;align=left;spacingLeft=6;overflow=hidden;" parent="MD2-rtIMPpAFqubzUFR5-204" vertex="1">
          <mxGeometry x="180" width="150" height="30" as="geometry" />
        </mxCell>
        <mxCell id="MD2-rtIMPpAFqubzUFR5-530" value="String" style="shape=partialRectangle;connectable=0;fillColor=none;top=0;left=0;bottom=0;right=0;align=left;spacingLeft=6;overflow=hidden;" parent="MD2-rtIMPpAFqubzUFR5-204" vertex="1">
          <mxGeometry x="330" width="150" height="30" as="geometry" />
        </mxCell>
        <mxCell id="MD2-rtIMPpAFqubzUFR5-207" style="shape=partialRectangle;collapsible=0;dropTarget=0;pointerEvents=0;fillColor=none;top=0;left=0;bottom=0;right=0;points=[[0,0.5],[1,0.5]];portConstraint=eastwest;" parent="MD2-rtIMPpAFqubzUFR5-188" vertex="1">
          <mxGeometry y="270" width="480" height="30" as="geometry" />
        </mxCell>
        <mxCell id="MD2-rtIMPpAFqubzUFR5-208" style="shape=partialRectangle;connectable=0;fillColor=none;top=0;left=0;bottom=0;right=0;editable=1;overflow=hidden;" parent="MD2-rtIMPpAFqubzUFR5-207" vertex="1">
          <mxGeometry width="30" height="30" as="geometry" />
        </mxCell>
        <mxCell id="MD2-rtIMPpAFqubzUFR5-477" value="image" style="shape=partialRectangle;connectable=0;fillColor=none;top=0;left=0;bottom=0;right=0;align=left;spacingLeft=6;overflow=hidden;" parent="MD2-rtIMPpAFqubzUFR5-207" vertex="1">
          <mxGeometry x="30" width="150" height="30" as="geometry" />
        </mxCell>
        <mxCell id="MD2-rtIMPpAFqubzUFR5-209" value="사진" style="shape=partialRectangle;connectable=0;fillColor=none;top=0;left=0;bottom=0;right=0;align=left;spacingLeft=6;overflow=hidden;" parent="MD2-rtIMPpAFqubzUFR5-207" vertex="1">
          <mxGeometry x="180" width="150" height="30" as="geometry" />
        </mxCell>
        <mxCell id="MD2-rtIMPpAFqubzUFR5-531" value="String" style="shape=partialRectangle;connectable=0;fillColor=none;top=0;left=0;bottom=0;right=0;align=left;spacingLeft=6;overflow=hidden;" parent="MD2-rtIMPpAFqubzUFR5-207" vertex="1">
          <mxGeometry x="330" width="150" height="30" as="geometry" />
        </mxCell>
        <mxCell id="MD2-rtIMPpAFqubzUFR5-216" value="lives" style="shape=table;startSize=30;container=1;collapsible=1;childLayout=tableLayout;fixedRows=1;rowLines=0;fontStyle=1;align=center;resizeLast=1;" parent="1" vertex="1">
          <mxGeometry x="890" y="50" width="480" height="420" as="geometry" />
        </mxCell>
        <mxCell id="MD2-rtIMPpAFqubzUFR5-217" value="" style="shape=partialRectangle;collapsible=0;dropTarget=0;pointerEvents=0;fillColor=none;top=0;left=0;bottom=1;right=0;points=[[0,0.5],[1,0.5]];portConstraint=eastwest;" parent="MD2-rtIMPpAFqubzUFR5-216" vertex="1">
          <mxGeometry y="30" width="480" height="30" as="geometry" />
        </mxCell>
        <mxCell id="MD2-rtIMPpAFqubzUFR5-218" value="PK" style="shape=partialRectangle;connectable=0;fillColor=none;top=0;left=0;bottom=0;right=0;fontStyle=1;overflow=hidden;" parent="MD2-rtIMPpAFqubzUFR5-217" vertex="1">
          <mxGeometry width="30" height="30" as="geometry" />
        </mxCell>
        <mxCell id="MD2-rtIMPpAFqubzUFR5-455" value="id" style="shape=partialRectangle;connectable=0;fillColor=none;top=0;left=0;bottom=0;right=0;align=left;spacingLeft=6;fontStyle=5;overflow=hidden;" parent="MD2-rtIMPpAFqubzUFR5-217" vertex="1">
          <mxGeometry x="30" width="150" height="30" as="geometry" />
        </mxCell>
        <mxCell id="MD2-rtIMPpAFqubzUFR5-219" value="id" style="shape=partialRectangle;connectable=0;fillColor=none;top=0;left=0;bottom=0;right=0;align=left;spacingLeft=6;fontStyle=5;overflow=hidden;" parent="MD2-rtIMPpAFqubzUFR5-217" vertex="1">
          <mxGeometry x="180" width="150" height="30" as="geometry" />
        </mxCell>
        <mxCell id="MD2-rtIMPpAFqubzUFR5-532" value="INT" style="shape=partialRectangle;connectable=0;fillColor=none;top=0;left=0;bottom=0;right=0;align=left;spacingLeft=6;fontStyle=5;overflow=hidden;" parent="MD2-rtIMPpAFqubzUFR5-217" vertex="1">
          <mxGeometry x="330" width="150" height="30" as="geometry" />
        </mxCell>
        <mxCell id="MD2-rtIMPpAFqubzUFR5-244" style="shape=partialRectangle;collapsible=0;dropTarget=0;pointerEvents=0;fillColor=none;top=0;left=0;bottom=0;right=0;points=[[0,0.5],[1,0.5]];portConstraint=eastwest;" parent="MD2-rtIMPpAFqubzUFR5-216" vertex="1">
          <mxGeometry y="60" width="480" height="30" as="geometry" />
        </mxCell>
        <mxCell id="MD2-rtIMPpAFqubzUFR5-245" style="shape=partialRectangle;connectable=0;fillColor=none;top=0;left=0;bottom=0;right=0;editable=1;overflow=hidden;" parent="MD2-rtIMPpAFqubzUFR5-244" vertex="1">
          <mxGeometry width="30" height="30" as="geometry" />
        </mxCell>
        <mxCell id="MD2-rtIMPpAFqubzUFR5-456" value="live_type" style="shape=partialRectangle;connectable=0;fillColor=none;top=0;left=0;bottom=0;right=0;align=left;spacingLeft=6;overflow=hidden;" parent="MD2-rtIMPpAFqubzUFR5-244" vertex="1">
          <mxGeometry x="30" width="150" height="30" as="geometry" />
        </mxCell>
        <mxCell id="MD2-rtIMPpAFqubzUFR5-246" value="라이브 타입" style="shape=partialRectangle;connectable=0;fillColor=none;top=0;left=0;bottom=0;right=0;align=left;spacingLeft=6;overflow=hidden;" parent="MD2-rtIMPpAFqubzUFR5-244" vertex="1">
          <mxGeometry x="180" width="150" height="30" as="geometry" />
        </mxCell>
        <mxCell id="MD2-rtIMPpAFqubzUFR5-533" value="INT" style="shape=partialRectangle;connectable=0;fillColor=none;top=0;left=0;bottom=0;right=0;align=left;spacingLeft=6;overflow=hidden;" parent="MD2-rtIMPpAFqubzUFR5-244" vertex="1">
          <mxGeometry x="330" width="150" height="30" as="geometry" />
        </mxCell>
        <mxCell id="MD2-rtIMPpAFqubzUFR5-220" value="" style="shape=partialRectangle;collapsible=0;dropTarget=0;pointerEvents=0;fillColor=none;top=0;left=0;bottom=0;right=0;points=[[0,0.5],[1,0.5]];portConstraint=eastwest;" parent="MD2-rtIMPpAFqubzUFR5-216" vertex="1">
          <mxGeometry y="90" width="480" height="30" as="geometry" />
        </mxCell>
        <mxCell id="MD2-rtIMPpAFqubzUFR5-221" value="" style="shape=partialRectangle;connectable=0;fillColor=none;top=0;left=0;bottom=0;right=0;editable=1;overflow=hidden;" parent="MD2-rtIMPpAFqubzUFR5-220" vertex="1">
          <mxGeometry width="30" height="30" as="geometry" />
        </mxCell>
        <mxCell id="MD2-rtIMPpAFqubzUFR5-457" value="user_id" style="shape=partialRectangle;connectable=0;fillColor=none;top=0;left=0;bottom=0;right=0;align=left;spacingLeft=6;overflow=hidden;" parent="MD2-rtIMPpAFqubzUFR5-220" vertex="1">
          <mxGeometry x="30" width="150" height="30" as="geometry" />
        </mxCell>
        <mxCell id="MD2-rtIMPpAFqubzUFR5-222" value="user_id" style="shape=partialRectangle;connectable=0;fillColor=none;top=0;left=0;bottom=0;right=0;align=left;spacingLeft=6;overflow=hidden;" parent="MD2-rtIMPpAFqubzUFR5-220" vertex="1">
          <mxGeometry x="180" width="150" height="30" as="geometry" />
        </mxCell>
        <mxCell id="MD2-rtIMPpAFqubzUFR5-534" value="INT" style="shape=partialRectangle;connectable=0;fillColor=none;top=0;left=0;bottom=0;right=0;align=left;spacingLeft=6;overflow=hidden;" parent="MD2-rtIMPpAFqubzUFR5-220" vertex="1">
          <mxGeometry x="330" width="150" height="30" as="geometry" />
        </mxCell>
        <mxCell id="MD2-rtIMPpAFqubzUFR5-223" value="" style="shape=partialRectangle;collapsible=0;dropTarget=0;pointerEvents=0;fillColor=none;top=0;left=0;bottom=0;right=0;points=[[0,0.5],[1,0.5]];portConstraint=eastwest;" parent="MD2-rtIMPpAFqubzUFR5-216" vertex="1">
          <mxGeometry y="120" width="480" height="30" as="geometry" />
        </mxCell>
        <mxCell id="MD2-rtIMPpAFqubzUFR5-224" value="" style="shape=partialRectangle;connectable=0;fillColor=none;top=0;left=0;bottom=0;right=0;editable=1;overflow=hidden;" parent="MD2-rtIMPpAFqubzUFR5-223" vertex="1">
          <mxGeometry width="30" height="30" as="geometry" />
        </mxCell>
        <mxCell id="MD2-rtIMPpAFqubzUFR5-458" value="start_time" style="shape=partialRectangle;connectable=0;fillColor=none;top=0;left=0;bottom=0;right=0;align=left;spacingLeft=6;overflow=hidden;" parent="MD2-rtIMPpAFqubzUFR5-223" vertex="1">
          <mxGeometry x="30" width="150" height="30" as="geometry" />
        </mxCell>
        <mxCell id="MD2-rtIMPpAFqubzUFR5-225" value="시작시간" style="shape=partialRectangle;connectable=0;fillColor=none;top=0;left=0;bottom=0;right=0;align=left;spacingLeft=6;overflow=hidden;" parent="MD2-rtIMPpAFqubzUFR5-223" vertex="1">
          <mxGeometry x="180" width="150" height="30" as="geometry" />
        </mxCell>
        <mxCell id="MD2-rtIMPpAFqubzUFR5-535" value="DATETIME" style="shape=partialRectangle;connectable=0;fillColor=none;top=0;left=0;bottom=0;right=0;align=left;spacingLeft=6;overflow=hidden;" parent="MD2-rtIMPpAFqubzUFR5-223" vertex="1">
          <mxGeometry x="330" width="150" height="30" as="geometry" />
        </mxCell>
        <mxCell id="MD2-rtIMPpAFqubzUFR5-465" value="" style="shape=partialRectangle;collapsible=0;dropTarget=0;pointerEvents=0;fillColor=none;top=0;left=0;bottom=0;right=0;points=[[0,0.5],[1,0.5]];portConstraint=eastwest;" parent="MD2-rtIMPpAFqubzUFR5-216" vertex="1">
          <mxGeometry y="150" width="480" height="30" as="geometry" />
        </mxCell>
        <mxCell id="MD2-rtIMPpAFqubzUFR5-466" value="" style="shape=partialRectangle;connectable=0;fillColor=none;top=0;left=0;bottom=0;right=0;editable=1;overflow=hidden;" parent="MD2-rtIMPpAFqubzUFR5-465" vertex="1">
          <mxGeometry width="30" height="30" as="geometry" />
        </mxCell>
        <mxCell id="MD2-rtIMPpAFqubzUFR5-467" value="end_time" style="shape=partialRectangle;connectable=0;fillColor=none;top=0;left=0;bottom=0;right=0;align=left;spacingLeft=6;overflow=hidden;" parent="MD2-rtIMPpAFqubzUFR5-465" vertex="1">
          <mxGeometry x="30" width="150" height="30" as="geometry" />
        </mxCell>
        <mxCell id="MD2-rtIMPpAFqubzUFR5-468" value="끝난시간" style="shape=partialRectangle;connectable=0;fillColor=none;top=0;left=0;bottom=0;right=0;align=left;spacingLeft=6;overflow=hidden;" parent="MD2-rtIMPpAFqubzUFR5-465" vertex="1">
          <mxGeometry x="180" width="150" height="30" as="geometry" />
        </mxCell>
        <mxCell id="MD2-rtIMPpAFqubzUFR5-536" value="DATETIME" style="shape=partialRectangle;connectable=0;fillColor=none;top=0;left=0;bottom=0;right=0;align=left;spacingLeft=6;overflow=hidden;" parent="MD2-rtIMPpAFqubzUFR5-465" vertex="1">
          <mxGeometry x="330" width="150" height="30" as="geometry" />
        </mxCell>
        <mxCell id="MD2-rtIMPpAFqubzUFR5-229" style="shape=partialRectangle;collapsible=0;dropTarget=0;pointerEvents=0;fillColor=none;top=0;left=0;bottom=0;right=0;points=[[0,0.5],[1,0.5]];portConstraint=eastwest;" parent="MD2-rtIMPpAFqubzUFR5-216" vertex="1">
          <mxGeometry y="180" width="480" height="30" as="geometry" />
        </mxCell>
        <mxCell id="MD2-rtIMPpAFqubzUFR5-230" style="shape=partialRectangle;connectable=0;fillColor=none;top=0;left=0;bottom=0;right=0;editable=1;overflow=hidden;" parent="MD2-rtIMPpAFqubzUFR5-229" vertex="1">
          <mxGeometry width="30" height="30" as="geometry" />
        </mxCell>
        <mxCell id="MD2-rtIMPpAFqubzUFR5-459" value="title" style="shape=partialRectangle;connectable=0;fillColor=none;top=0;left=0;bottom=0;right=0;align=left;spacingLeft=6;overflow=hidden;" parent="MD2-rtIMPpAFqubzUFR5-229" vertex="1">
          <mxGeometry x="30" width="150" height="30" as="geometry" />
        </mxCell>
        <mxCell id="MD2-rtIMPpAFqubzUFR5-231" value="제목" style="shape=partialRectangle;connectable=0;fillColor=none;top=0;left=0;bottom=0;right=0;align=left;spacingLeft=6;overflow=hidden;" parent="MD2-rtIMPpAFqubzUFR5-229" vertex="1">
          <mxGeometry x="180" width="150" height="30" as="geometry" />
        </mxCell>
        <mxCell id="MD2-rtIMPpAFqubzUFR5-537" value="String" style="shape=partialRectangle;connectable=0;fillColor=none;top=0;left=0;bottom=0;right=0;align=left;spacingLeft=6;overflow=hidden;" parent="MD2-rtIMPpAFqubzUFR5-229" vertex="1">
          <mxGeometry x="330" width="150" height="30" as="geometry" />
        </mxCell>
        <mxCell id="MD2-rtIMPpAFqubzUFR5-232" style="shape=partialRectangle;collapsible=0;dropTarget=0;pointerEvents=0;fillColor=none;top=0;left=0;bottom=0;right=0;points=[[0,0.5],[1,0.5]];portConstraint=eastwest;" parent="MD2-rtIMPpAFqubzUFR5-216" vertex="1">
          <mxGeometry y="210" width="480" height="30" as="geometry" />
        </mxCell>
        <mxCell id="MD2-rtIMPpAFqubzUFR5-233" style="shape=partialRectangle;connectable=0;fillColor=none;top=0;left=0;bottom=0;right=0;editable=1;overflow=hidden;" parent="MD2-rtIMPpAFqubzUFR5-232" vertex="1">
          <mxGeometry width="30" height="30" as="geometry" />
        </mxCell>
        <mxCell id="MD2-rtIMPpAFqubzUFR5-460" value="contents" style="shape=partialRectangle;connectable=0;fillColor=none;top=0;left=0;bottom=0;right=0;align=left;spacingLeft=6;overflow=hidden;" parent="MD2-rtIMPpAFqubzUFR5-232" vertex="1">
          <mxGeometry x="30" width="150" height="30" as="geometry" />
        </mxCell>
        <mxCell id="MD2-rtIMPpAFqubzUFR5-234" value="내용" style="shape=partialRectangle;connectable=0;fillColor=none;top=0;left=0;bottom=0;right=0;align=left;spacingLeft=6;overflow=hidden;" parent="MD2-rtIMPpAFqubzUFR5-232" vertex="1">
          <mxGeometry x="180" width="150" height="30" as="geometry" />
        </mxCell>
        <mxCell id="MD2-rtIMPpAFqubzUFR5-538" value="String" style="shape=partialRectangle;connectable=0;fillColor=none;top=0;left=0;bottom=0;right=0;align=left;spacingLeft=6;overflow=hidden;" parent="MD2-rtIMPpAFqubzUFR5-232" vertex="1">
          <mxGeometry x="330" width="150" height="30" as="geometry" />
        </mxCell>
        <mxCell id="nsHQNhk7Q4AftGqS9bct-11" style="shape=partialRectangle;collapsible=0;dropTarget=0;pointerEvents=0;fillColor=none;top=0;left=0;bottom=0;right=0;points=[[0,0.5],[1,0.5]];portConstraint=eastwest;" vertex="1" parent="MD2-rtIMPpAFqubzUFR5-216">
          <mxGeometry y="240" width="480" height="30" as="geometry" />
        </mxCell>
        <mxCell id="nsHQNhk7Q4AftGqS9bct-12" style="shape=partialRectangle;connectable=0;fillColor=none;top=0;left=0;bottom=0;right=0;editable=1;overflow=hidden;" vertex="1" parent="nsHQNhk7Q4AftGqS9bct-11">
          <mxGeometry width="30" height="30" as="geometry" />
        </mxCell>
        <mxCell id="nsHQNhk7Q4AftGqS9bct-13" value="thumbnail" style="shape=partialRectangle;connectable=0;fillColor=none;top=0;left=0;bottom=0;right=0;align=left;spacingLeft=6;overflow=hidden;" vertex="1" parent="nsHQNhk7Q4AftGqS9bct-11">
          <mxGeometry x="30" width="150" height="30" as="geometry" />
        </mxCell>
        <mxCell id="nsHQNhk7Q4AftGqS9bct-14" value="썸네일" style="shape=partialRectangle;connectable=0;fillColor=none;top=0;left=0;bottom=0;right=0;align=left;spacingLeft=6;overflow=hidden;" vertex="1" parent="nsHQNhk7Q4AftGqS9bct-11">
          <mxGeometry x="180" width="150" height="30" as="geometry" />
        </mxCell>
        <mxCell id="nsHQNhk7Q4AftGqS9bct-15" value="String" style="shape=partialRectangle;connectable=0;fillColor=none;top=0;left=0;bottom=0;right=0;align=left;spacingLeft=6;overflow=hidden;" vertex="1" parent="nsHQNhk7Q4AftGqS9bct-11">
          <mxGeometry x="330" width="150" height="30" as="geometry" />
        </mxCell>
        <mxCell id="MD2-rtIMPpAFqubzUFR5-235" style="shape=partialRectangle;collapsible=0;dropTarget=0;pointerEvents=0;fillColor=none;top=0;left=0;bottom=0;right=0;points=[[0,0.5],[1,0.5]];portConstraint=eastwest;" parent="MD2-rtIMPpAFqubzUFR5-216" vertex="1">
          <mxGeometry y="270" width="480" height="30" as="geometry" />
        </mxCell>
        <mxCell id="MD2-rtIMPpAFqubzUFR5-236" style="shape=partialRectangle;connectable=0;fillColor=none;top=0;left=0;bottom=0;right=0;editable=1;overflow=hidden;" parent="MD2-rtIMPpAFqubzUFR5-235" vertex="1">
          <mxGeometry width="30" height="30" as="geometry" />
        </mxCell>
        <mxCell id="MD2-rtIMPpAFqubzUFR5-461" value="video" style="shape=partialRectangle;connectable=0;fillColor=none;top=0;left=0;bottom=0;right=0;align=left;spacingLeft=6;overflow=hidden;" parent="MD2-rtIMPpAFqubzUFR5-235" vertex="1">
          <mxGeometry x="30" width="150" height="30" as="geometry" />
        </mxCell>
        <mxCell id="MD2-rtIMPpAFqubzUFR5-237" value="동영상" style="shape=partialRectangle;connectable=0;fillColor=none;top=0;left=0;bottom=0;right=0;align=left;spacingLeft=6;overflow=hidden;" parent="MD2-rtIMPpAFqubzUFR5-235" vertex="1">
          <mxGeometry x="180" width="150" height="30" as="geometry" />
        </mxCell>
        <mxCell id="MD2-rtIMPpAFqubzUFR5-539" value="String" style="shape=partialRectangle;connectable=0;fillColor=none;top=0;left=0;bottom=0;right=0;align=left;spacingLeft=6;overflow=hidden;" parent="MD2-rtIMPpAFqubzUFR5-235" vertex="1">
          <mxGeometry x="330" width="150" height="30" as="geometry" />
        </mxCell>
        <mxCell id="MD2-rtIMPpAFqubzUFR5-247" style="shape=partialRectangle;collapsible=0;dropTarget=0;pointerEvents=0;fillColor=none;top=0;left=0;bottom=0;right=0;points=[[0,0.5],[1,0.5]];portConstraint=eastwest;" parent="MD2-rtIMPpAFqubzUFR5-216" vertex="1">
          <mxGeometry y="300" width="480" height="30" as="geometry" />
        </mxCell>
        <mxCell id="MD2-rtIMPpAFqubzUFR5-248" style="shape=partialRectangle;connectable=0;fillColor=none;top=0;left=0;bottom=0;right=0;editable=1;overflow=hidden;" parent="MD2-rtIMPpAFqubzUFR5-247" vertex="1">
          <mxGeometry width="30" height="30" as="geometry" />
        </mxCell>
        <mxCell id="MD2-rtIMPpAFqubzUFR5-462" value="views" style="shape=partialRectangle;connectable=0;fillColor=none;top=0;left=0;bottom=0;right=0;align=left;spacingLeft=6;overflow=hidden;" parent="MD2-rtIMPpAFqubzUFR5-247" vertex="1">
          <mxGeometry x="30" width="150" height="30" as="geometry" />
        </mxCell>
        <mxCell id="MD2-rtIMPpAFqubzUFR5-249" value="시청자수" style="shape=partialRectangle;connectable=0;fillColor=none;top=0;left=0;bottom=0;right=0;align=left;spacingLeft=6;overflow=hidden;" parent="MD2-rtIMPpAFqubzUFR5-247" vertex="1">
          <mxGeometry x="180" width="150" height="30" as="geometry" />
        </mxCell>
        <mxCell id="MD2-rtIMPpAFqubzUFR5-540" value="INT" style="shape=partialRectangle;connectable=0;fillColor=none;top=0;left=0;bottom=0;right=0;align=left;spacingLeft=6;overflow=hidden;" parent="MD2-rtIMPpAFqubzUFR5-247" vertex="1">
          <mxGeometry x="330" width="150" height="30" as="geometry" />
        </mxCell>
        <mxCell id="MD2-rtIMPpAFqubzUFR5-238" style="shape=partialRectangle;collapsible=0;dropTarget=0;pointerEvents=0;fillColor=none;top=0;left=0;bottom=0;right=0;points=[[0,0.5],[1,0.5]];portConstraint=eastwest;" parent="MD2-rtIMPpAFqubzUFR5-216" vertex="1">
          <mxGeometry y="330" width="480" height="30" as="geometry" />
        </mxCell>
        <mxCell id="MD2-rtIMPpAFqubzUFR5-239" style="shape=partialRectangle;connectable=0;fillColor=none;top=0;left=0;bottom=0;right=0;editable=1;overflow=hidden;" parent="MD2-rtIMPpAFqubzUFR5-238" vertex="1">
          <mxGeometry width="30" height="30" as="geometry" />
        </mxCell>
        <mxCell id="MD2-rtIMPpAFqubzUFR5-463" value="likes" style="shape=partialRectangle;connectable=0;fillColor=none;top=0;left=0;bottom=0;right=0;align=left;spacingLeft=6;overflow=hidden;" parent="MD2-rtIMPpAFqubzUFR5-238" vertex="1">
          <mxGeometry x="30" width="150" height="30" as="geometry" />
        </mxCell>
        <mxCell id="MD2-rtIMPpAFqubzUFR5-240" value="좋아요" style="shape=partialRectangle;connectable=0;fillColor=none;top=0;left=0;bottom=0;right=0;align=left;spacingLeft=6;overflow=hidden;" parent="MD2-rtIMPpAFqubzUFR5-238" vertex="1">
          <mxGeometry x="180" width="150" height="30" as="geometry" />
        </mxCell>
        <mxCell id="MD2-rtIMPpAFqubzUFR5-541" value="INT" style="shape=partialRectangle;connectable=0;fillColor=none;top=0;left=0;bottom=0;right=0;align=left;spacingLeft=6;overflow=hidden;" parent="MD2-rtIMPpAFqubzUFR5-238" vertex="1">
          <mxGeometry x="330" width="150" height="30" as="geometry" />
        </mxCell>
        <mxCell id="MD2-rtIMPpAFqubzUFR5-241" style="shape=partialRectangle;collapsible=0;dropTarget=0;pointerEvents=0;fillColor=none;top=0;left=0;bottom=0;right=0;points=[[0,0.5],[1,0.5]];portConstraint=eastwest;" parent="MD2-rtIMPpAFqubzUFR5-216" vertex="1">
          <mxGeometry y="360" width="480" height="30" as="geometry" />
        </mxCell>
        <mxCell id="MD2-rtIMPpAFqubzUFR5-242" style="shape=partialRectangle;connectable=0;fillColor=none;top=0;left=0;bottom=0;right=0;editable=1;overflow=hidden;" parent="MD2-rtIMPpAFqubzUFR5-241" vertex="1">
          <mxGeometry width="30" height="30" as="geometry" />
        </mxCell>
        <mxCell id="MD2-rtIMPpAFqubzUFR5-464" value="save" style="shape=partialRectangle;connectable=0;fillColor=none;top=0;left=0;bottom=0;right=0;align=left;spacingLeft=6;overflow=hidden;" parent="MD2-rtIMPpAFqubzUFR5-241" vertex="1">
          <mxGeometry x="30" width="150" height="30" as="geometry" />
        </mxCell>
        <mxCell id="MD2-rtIMPpAFqubzUFR5-243" value="저장선택" style="shape=partialRectangle;connectable=0;fillColor=none;top=0;left=0;bottom=0;right=0;align=left;spacingLeft=6;overflow=hidden;" parent="MD2-rtIMPpAFqubzUFR5-241" vertex="1">
          <mxGeometry x="180" width="150" height="30" as="geometry" />
        </mxCell>
        <mxCell id="MD2-rtIMPpAFqubzUFR5-542" value="INT" style="shape=partialRectangle;connectable=0;fillColor=none;top=0;left=0;bottom=0;right=0;align=left;spacingLeft=6;overflow=hidden;" parent="MD2-rtIMPpAFqubzUFR5-241" vertex="1">
          <mxGeometry x="330" width="150" height="30" as="geometry" />
        </mxCell>
        <mxCell id="Ak5lAXLYVuY5CHqK2pYT-11" style="shape=partialRectangle;collapsible=0;dropTarget=0;pointerEvents=0;fillColor=none;top=0;left=0;bottom=0;right=0;points=[[0,0.5],[1,0.5]];portConstraint=eastwest;" parent="MD2-rtIMPpAFqubzUFR5-216" vertex="1">
          <mxGeometry y="390" width="480" height="30" as="geometry" />
        </mxCell>
        <mxCell id="Ak5lAXLYVuY5CHqK2pYT-12" style="shape=partialRectangle;connectable=0;fillColor=none;top=0;left=0;bottom=0;right=0;editable=1;overflow=hidden;" parent="Ak5lAXLYVuY5CHqK2pYT-11" vertex="1">
          <mxGeometry width="30" height="30" as="geometry" />
        </mxCell>
        <mxCell id="Ak5lAXLYVuY5CHqK2pYT-13" value="tags" style="shape=partialRectangle;connectable=0;fillColor=none;top=0;left=0;bottom=0;right=0;align=left;spacingLeft=6;overflow=hidden;" parent="Ak5lAXLYVuY5CHqK2pYT-11" vertex="1">
          <mxGeometry x="30" width="150" height="30" as="geometry" />
        </mxCell>
        <mxCell id="Ak5lAXLYVuY5CHqK2pYT-14" value="태그" style="shape=partialRectangle;connectable=0;fillColor=none;top=0;left=0;bottom=0;right=0;align=left;spacingLeft=6;overflow=hidden;" parent="Ak5lAXLYVuY5CHqK2pYT-11" vertex="1">
          <mxGeometry x="180" width="150" height="30" as="geometry" />
        </mxCell>
        <mxCell id="Ak5lAXLYVuY5CHqK2pYT-15" value="String" style="shape=partialRectangle;connectable=0;fillColor=none;top=0;left=0;bottom=0;right=0;align=left;spacingLeft=6;overflow=hidden;" parent="Ak5lAXLYVuY5CHqK2pYT-11" vertex="1">
          <mxGeometry x="330" width="150" height="30" as="geometry" />
        </mxCell>
        <mxCell id="MD2-rtIMPpAFqubzUFR5-250" value="" style="edgeStyle=entityRelationEdgeStyle;fontSize=12;html=1;endArrow=ERzeroToMany;exitX=0;exitY=0.5;exitDx=0;exitDy=0;endFill=1;entryX=1;entryY=0.5;entryDx=0;entryDy=0;" parent="1" source="MD2-rtIMPpAFqubzUFR5-2" target="cf8r5tpqv3BlE3Bak3ng-6" edge="1">
          <mxGeometry width="100" height="100" relative="1" as="geometry">
            <mxPoint x="400" y="450" as="sourcePoint" />
            <mxPoint x="-120" y="420" as="targetPoint" />
          </mxGeometry>
        </mxCell>
        <mxCell id="MD2-rtIMPpAFqubzUFR5-251" value="" style="edgeStyle=orthogonalEdgeStyle;fontSize=12;html=1;endArrow=ERzeroToMany;endFill=1;entryX=1;entryY=0.5;entryDx=0;entryDy=0;exitX=0;exitY=0.5;exitDx=0;exitDy=0;" parent="1" source="MD2-rtIMPpAFqubzUFR5-2" target="cf8r5tpqv3BlE3Bak3ng-11" edge="1">
          <mxGeometry width="100" height="100" relative="1" as="geometry">
            <mxPoint x="300" y="425" as="sourcePoint" />
            <mxPoint x="180" y="535.0000000000001" as="targetPoint" />
            <Array as="points">
              <mxPoint x="190" y="345" />
              <mxPoint x="190" y="535" />
            </Array>
          </mxGeometry>
        </mxCell>
        <mxCell id="MD2-rtIMPpAFqubzUFR5-252" value="" style="edgeStyle=orthogonalEdgeStyle;fontSize=12;html=1;endArrow=ERzeroToMany;exitX=1;exitY=0.5;exitDx=0;exitDy=0;endFill=1;entryX=1;entryY=0.5;entryDx=0;entryDy=0;" parent="1" source="MD2-rtIMPpAFqubzUFR5-2" target="MD2-rtIMPpAFqubzUFR5-164" edge="1">
          <mxGeometry width="100" height="100" relative="1" as="geometry">
            <mxPoint x="250" y="95" as="sourcePoint" />
            <mxPoint x="160" y="435.0000000000001" as="targetPoint" />
            <Array as="points">
              <mxPoint x="790" y="345" />
              <mxPoint x="790" y="685" />
            </Array>
          </mxGeometry>
        </mxCell>
        <mxCell id="MD2-rtIMPpAFqubzUFR5-254" value="" style="edgeStyle=entityRelationEdgeStyle;fontSize=12;html=1;endArrow=ERzeroToMany;entryX=0;entryY=0.5;entryDx=0;entryDy=0;exitX=1;exitY=0.5;exitDx=0;exitDy=0;endFill=1;" parent="1" source="MD2-rtIMPpAFqubzUFR5-2" target="MD2-rtIMPpAFqubzUFR5-220" edge="1">
          <mxGeometry width="100" height="100" relative="1" as="geometry">
            <mxPoint x="250" y="95" as="sourcePoint" />
            <mxPoint x="630" y="465.0000000000001" as="targetPoint" />
          </mxGeometry>
        </mxCell>
        <mxCell id="MD2-rtIMPpAFqubzUFR5-255" value="" style="edgeStyle=entityRelationEdgeStyle;fontSize=12;html=1;endArrow=ERzeroToMany;endFill=1;" parent="1" source="MD2-rtIMPpAFqubzUFR5-2" target="MD2-rtIMPpAFqubzUFR5-130" edge="1">
          <mxGeometry width="100" height="100" relative="1" as="geometry">
            <mxPoint x="250" y="95" as="sourcePoint" />
            <mxPoint x="850" y="495" as="targetPoint" />
          </mxGeometry>
        </mxCell>
        <mxCell id="MD2-rtIMPpAFqubzUFR5-411" value="tip_shorts" style="shape=table;startSize=30;container=1;collapsible=1;childLayout=tableLayout;fixedRows=1;rowLines=0;fontStyle=1;align=center;resizeLast=1;" parent="1" vertex="1">
          <mxGeometry x="-410" y="460" width="480" height="360" as="geometry" />
        </mxCell>
        <mxCell id="MD2-rtIMPpAFqubzUFR5-412" value="" style="shape=partialRectangle;collapsible=0;dropTarget=0;pointerEvents=0;fillColor=none;top=0;left=0;bottom=1;right=0;points=[[0,0.5],[1,0.5]];portConstraint=eastwest;" parent="MD2-rtIMPpAFqubzUFR5-411" vertex="1">
          <mxGeometry y="30" width="480" height="30" as="geometry" />
        </mxCell>
        <mxCell id="MD2-rtIMPpAFqubzUFR5-413" value="PK" style="shape=partialRectangle;connectable=0;fillColor=none;top=0;left=0;bottom=0;right=0;fontStyle=1;overflow=hidden;" parent="MD2-rtIMPpAFqubzUFR5-412" vertex="1">
          <mxGeometry width="30" height="30" as="geometry" />
        </mxCell>
        <mxCell id="MD2-rtIMPpAFqubzUFR5-414" value="id" style="shape=partialRectangle;connectable=0;fillColor=none;top=0;left=0;bottom=0;right=0;align=left;spacingLeft=6;fontStyle=5;overflow=hidden;" parent="MD2-rtIMPpAFqubzUFR5-412" vertex="1">
          <mxGeometry x="30" width="150" height="30" as="geometry" />
        </mxCell>
        <mxCell id="MD2-rtIMPpAFqubzUFR5-415" value="글번호" style="shape=partialRectangle;connectable=0;fillColor=none;top=0;left=0;bottom=0;right=0;align=left;spacingLeft=6;fontStyle=5;overflow=hidden;" parent="MD2-rtIMPpAFqubzUFR5-412" vertex="1">
          <mxGeometry x="180" width="150" height="30" as="geometry" />
        </mxCell>
        <mxCell id="MD2-rtIMPpAFqubzUFR5-495" value="INT" style="shape=partialRectangle;connectable=0;fillColor=none;top=0;left=0;bottom=0;right=0;align=left;spacingLeft=6;fontStyle=5;overflow=hidden;" parent="MD2-rtIMPpAFqubzUFR5-412" vertex="1">
          <mxGeometry x="330" width="150" height="30" as="geometry" />
        </mxCell>
        <mxCell id="cf8r5tpqv3BlE3Bak3ng-11" value="" style="shape=partialRectangle;collapsible=0;dropTarget=0;pointerEvents=0;fillColor=none;top=0;left=0;bottom=0;right=0;points=[[0,0.5],[1,0.5]];portConstraint=eastwest;" parent="MD2-rtIMPpAFqubzUFR5-411" vertex="1">
          <mxGeometry y="60" width="480" height="30" as="geometry" />
        </mxCell>
        <mxCell id="cf8r5tpqv3BlE3Bak3ng-12" value="" style="shape=partialRectangle;connectable=0;fillColor=none;top=0;left=0;bottom=0;right=0;editable=1;overflow=hidden;" parent="cf8r5tpqv3BlE3Bak3ng-11" vertex="1">
          <mxGeometry width="30" height="30" as="geometry" />
        </mxCell>
        <mxCell id="cf8r5tpqv3BlE3Bak3ng-13" value="user_id" style="shape=partialRectangle;connectable=0;fillColor=none;top=0;left=0;bottom=0;right=0;align=left;spacingLeft=6;overflow=hidden;" parent="cf8r5tpqv3BlE3Bak3ng-11" vertex="1">
          <mxGeometry x="30" width="150" height="30" as="geometry" />
        </mxCell>
        <mxCell id="cf8r5tpqv3BlE3Bak3ng-14" value="사용자번호" style="shape=partialRectangle;connectable=0;fillColor=none;top=0;left=0;bottom=0;right=0;align=left;spacingLeft=6;overflow=hidden;" parent="cf8r5tpqv3BlE3Bak3ng-11" vertex="1">
          <mxGeometry x="180" width="150" height="30" as="geometry" />
        </mxCell>
        <mxCell id="cf8r5tpqv3BlE3Bak3ng-15" value="INT" style="shape=partialRectangle;connectable=0;fillColor=none;top=0;left=0;bottom=0;right=0;align=left;spacingLeft=6;overflow=hidden;" parent="cf8r5tpqv3BlE3Bak3ng-11" vertex="1">
          <mxGeometry x="330" width="150" height="30" as="geometry" />
        </mxCell>
        <mxCell id="MD2-rtIMPpAFqubzUFR5-420" value="" style="shape=partialRectangle;collapsible=0;dropTarget=0;pointerEvents=0;fillColor=none;top=0;left=0;bottom=0;right=0;points=[[0,0.5],[1,0.5]];portConstraint=eastwest;" parent="MD2-rtIMPpAFqubzUFR5-411" vertex="1">
          <mxGeometry y="90" width="480" height="30" as="geometry" />
        </mxCell>
        <mxCell id="MD2-rtIMPpAFqubzUFR5-421" value="" style="shape=partialRectangle;connectable=0;fillColor=none;top=0;left=0;bottom=0;right=0;editable=1;overflow=hidden;" parent="MD2-rtIMPpAFqubzUFR5-420" vertex="1">
          <mxGeometry width="30" height="30" as="geometry" />
        </mxCell>
        <mxCell id="MD2-rtIMPpAFqubzUFR5-422" value="time" style="shape=partialRectangle;connectable=0;fillColor=none;top=0;left=0;bottom=0;right=0;align=left;spacingLeft=6;overflow=hidden;" parent="MD2-rtIMPpAFqubzUFR5-420" vertex="1">
          <mxGeometry x="30" width="150" height="30" as="geometry" />
        </mxCell>
        <mxCell id="MD2-rtIMPpAFqubzUFR5-423" value="작성일" style="shape=partialRectangle;connectable=0;fillColor=none;top=0;left=0;bottom=0;right=0;align=left;spacingLeft=6;overflow=hidden;" parent="MD2-rtIMPpAFqubzUFR5-420" vertex="1">
          <mxGeometry x="180" width="150" height="30" as="geometry" />
        </mxCell>
        <mxCell id="MD2-rtIMPpAFqubzUFR5-497" value="DATETIME" style="shape=partialRectangle;connectable=0;fillColor=none;top=0;left=0;bottom=0;right=0;align=left;spacingLeft=6;overflow=hidden;" parent="MD2-rtIMPpAFqubzUFR5-420" vertex="1">
          <mxGeometry x="330" width="150" height="30" as="geometry" />
        </mxCell>
        <mxCell id="MD2-rtIMPpAFqubzUFR5-424" value="" style="shape=partialRectangle;collapsible=0;dropTarget=0;pointerEvents=0;fillColor=none;top=0;left=0;bottom=0;right=0;points=[[0,0.5],[1,0.5]];portConstraint=eastwest;" parent="MD2-rtIMPpAFqubzUFR5-411" vertex="1">
          <mxGeometry y="120" width="480" height="30" as="geometry" />
        </mxCell>
        <mxCell id="MD2-rtIMPpAFqubzUFR5-425" value="" style="shape=partialRectangle;connectable=0;fillColor=none;top=0;left=0;bottom=0;right=0;editable=1;overflow=hidden;" parent="MD2-rtIMPpAFqubzUFR5-424" vertex="1">
          <mxGeometry width="30" height="30" as="geometry" />
        </mxCell>
        <mxCell id="MD2-rtIMPpAFqubzUFR5-426" value="edit_time" style="shape=partialRectangle;connectable=0;fillColor=none;top=0;left=0;bottom=0;right=0;align=left;spacingLeft=6;overflow=hidden;" parent="MD2-rtIMPpAFqubzUFR5-424" vertex="1">
          <mxGeometry x="30" width="150" height="30" as="geometry" />
        </mxCell>
        <mxCell id="MD2-rtIMPpAFqubzUFR5-427" value="수정일" style="shape=partialRectangle;connectable=0;fillColor=none;top=0;left=0;bottom=0;right=0;align=left;spacingLeft=6;overflow=hidden;" parent="MD2-rtIMPpAFqubzUFR5-424" vertex="1">
          <mxGeometry x="180" width="150" height="30" as="geometry" />
        </mxCell>
        <mxCell id="MD2-rtIMPpAFqubzUFR5-498" value="DATETIME" style="shape=partialRectangle;connectable=0;fillColor=none;top=0;left=0;bottom=0;right=0;align=left;spacingLeft=6;overflow=hidden;" parent="MD2-rtIMPpAFqubzUFR5-424" vertex="1">
          <mxGeometry x="330" width="150" height="30" as="geometry" />
        </mxCell>
        <mxCell id="MD2-rtIMPpAFqubzUFR5-428" style="shape=partialRectangle;collapsible=0;dropTarget=0;pointerEvents=0;fillColor=none;top=0;left=0;bottom=0;right=0;points=[[0,0.5],[1,0.5]];portConstraint=eastwest;" parent="MD2-rtIMPpAFqubzUFR5-411" vertex="1">
          <mxGeometry y="150" width="480" height="30" as="geometry" />
        </mxCell>
        <mxCell id="MD2-rtIMPpAFqubzUFR5-429" style="shape=partialRectangle;connectable=0;fillColor=none;top=0;left=0;bottom=0;right=0;editable=1;overflow=hidden;" parent="MD2-rtIMPpAFqubzUFR5-428" vertex="1">
          <mxGeometry width="30" height="30" as="geometry" />
        </mxCell>
        <mxCell id="MD2-rtIMPpAFqubzUFR5-430" value="title" style="shape=partialRectangle;connectable=0;fillColor=none;top=0;left=0;bottom=0;right=0;align=left;spacingLeft=6;overflow=hidden;" parent="MD2-rtIMPpAFqubzUFR5-428" vertex="1">
          <mxGeometry x="30" width="150" height="30" as="geometry" />
        </mxCell>
        <mxCell id="MD2-rtIMPpAFqubzUFR5-431" value="제목" style="shape=partialRectangle;connectable=0;fillColor=none;top=0;left=0;bottom=0;right=0;align=left;spacingLeft=6;overflow=hidden;" parent="MD2-rtIMPpAFqubzUFR5-428" vertex="1">
          <mxGeometry x="180" width="150" height="30" as="geometry" />
        </mxCell>
        <mxCell id="MD2-rtIMPpAFqubzUFR5-499" value="String" style="shape=partialRectangle;connectable=0;fillColor=none;top=0;left=0;bottom=0;right=0;align=left;spacingLeft=6;overflow=hidden;" parent="MD2-rtIMPpAFqubzUFR5-428" vertex="1">
          <mxGeometry x="330" width="150" height="30" as="geometry" />
        </mxCell>
        <mxCell id="MD2-rtIMPpAFqubzUFR5-432" style="shape=partialRectangle;collapsible=0;dropTarget=0;pointerEvents=0;fillColor=none;top=0;left=0;bottom=0;right=0;points=[[0,0.5],[1,0.5]];portConstraint=eastwest;" parent="MD2-rtIMPpAFqubzUFR5-411" vertex="1">
          <mxGeometry y="180" width="480" height="30" as="geometry" />
        </mxCell>
        <mxCell id="MD2-rtIMPpAFqubzUFR5-433" style="shape=partialRectangle;connectable=0;fillColor=none;top=0;left=0;bottom=0;right=0;editable=1;overflow=hidden;" parent="MD2-rtIMPpAFqubzUFR5-432" vertex="1">
          <mxGeometry width="30" height="30" as="geometry" />
        </mxCell>
        <mxCell id="MD2-rtIMPpAFqubzUFR5-434" value="contents" style="shape=partialRectangle;connectable=0;fillColor=none;top=0;left=0;bottom=0;right=0;align=left;spacingLeft=6;overflow=hidden;" parent="MD2-rtIMPpAFqubzUFR5-432" vertex="1">
          <mxGeometry x="30" width="150" height="30" as="geometry" />
        </mxCell>
        <mxCell id="MD2-rtIMPpAFqubzUFR5-435" value="내용" style="shape=partialRectangle;connectable=0;fillColor=none;top=0;left=0;bottom=0;right=0;align=left;spacingLeft=6;overflow=hidden;" parent="MD2-rtIMPpAFqubzUFR5-432" vertex="1">
          <mxGeometry x="180" width="150" height="30" as="geometry" />
        </mxCell>
        <mxCell id="MD2-rtIMPpAFqubzUFR5-500" value="String" style="shape=partialRectangle;connectable=0;fillColor=none;top=0;left=0;bottom=0;right=0;align=left;spacingLeft=6;overflow=hidden;" parent="MD2-rtIMPpAFqubzUFR5-432" vertex="1">
          <mxGeometry x="330" width="150" height="30" as="geometry" />
        </mxCell>
        <mxCell id="qXBr9dz6wmvR0xZSYaYj-6" style="shape=partialRectangle;collapsible=0;dropTarget=0;pointerEvents=0;fillColor=none;top=0;left=0;bottom=0;right=0;points=[[0,0.5],[1,0.5]];portConstraint=eastwest;" parent="MD2-rtIMPpAFqubzUFR5-411" vertex="1">
          <mxGeometry y="210" width="480" height="30" as="geometry" />
        </mxCell>
        <mxCell id="qXBr9dz6wmvR0xZSYaYj-7" style="shape=partialRectangle;connectable=0;fillColor=none;top=0;left=0;bottom=0;right=0;editable=1;overflow=hidden;" parent="qXBr9dz6wmvR0xZSYaYj-6" vertex="1">
          <mxGeometry width="30" height="30" as="geometry" />
        </mxCell>
        <mxCell id="qXBr9dz6wmvR0xZSYaYj-8" value="views" style="shape=partialRectangle;connectable=0;fillColor=none;top=0;left=0;bottom=0;right=0;align=left;spacingLeft=6;overflow=hidden;" parent="qXBr9dz6wmvR0xZSYaYj-6" vertex="1">
          <mxGeometry x="30" width="150" height="30" as="geometry" />
        </mxCell>
        <mxCell id="qXBr9dz6wmvR0xZSYaYj-9" value="조회수" style="shape=partialRectangle;connectable=0;fillColor=none;top=0;left=0;bottom=0;right=0;align=left;spacingLeft=6;overflow=hidden;" parent="qXBr9dz6wmvR0xZSYaYj-6" vertex="1">
          <mxGeometry x="180" width="150" height="30" as="geometry" />
        </mxCell>
        <mxCell id="qXBr9dz6wmvR0xZSYaYj-10" value="INT" style="shape=partialRectangle;connectable=0;fillColor=none;top=0;left=0;bottom=0;right=0;align=left;spacingLeft=6;overflow=hidden;" parent="qXBr9dz6wmvR0xZSYaYj-6" vertex="1">
          <mxGeometry x="330" width="150" height="30" as="geometry" />
        </mxCell>
        <mxCell id="nsHQNhk7Q4AftGqS9bct-6" style="shape=partialRectangle;collapsible=0;dropTarget=0;pointerEvents=0;fillColor=none;top=0;left=0;bottom=0;right=0;points=[[0,0.5],[1,0.5]];portConstraint=eastwest;" vertex="1" parent="MD2-rtIMPpAFqubzUFR5-411">
          <mxGeometry y="240" width="480" height="30" as="geometry" />
        </mxCell>
        <mxCell id="nsHQNhk7Q4AftGqS9bct-7" style="shape=partialRectangle;connectable=0;fillColor=none;top=0;left=0;bottom=0;right=0;editable=1;overflow=hidden;" vertex="1" parent="nsHQNhk7Q4AftGqS9bct-6">
          <mxGeometry width="30" height="30" as="geometry" />
        </mxCell>
        <mxCell id="nsHQNhk7Q4AftGqS9bct-8" value="thumbnail" style="shape=partialRectangle;connectable=0;fillColor=none;top=0;left=0;bottom=0;right=0;align=left;spacingLeft=6;overflow=hidden;" vertex="1" parent="nsHQNhk7Q4AftGqS9bct-6">
          <mxGeometry x="30" width="150" height="30" as="geometry" />
        </mxCell>
        <mxCell id="nsHQNhk7Q4AftGqS9bct-9" value="썸네일" style="shape=partialRectangle;connectable=0;fillColor=none;top=0;left=0;bottom=0;right=0;align=left;spacingLeft=6;overflow=hidden;" vertex="1" parent="nsHQNhk7Q4AftGqS9bct-6">
          <mxGeometry x="180" width="150" height="30" as="geometry" />
        </mxCell>
        <mxCell id="nsHQNhk7Q4AftGqS9bct-10" value="String" style="shape=partialRectangle;connectable=0;fillColor=none;top=0;left=0;bottom=0;right=0;align=left;spacingLeft=6;overflow=hidden;" vertex="1" parent="nsHQNhk7Q4AftGqS9bct-6">
          <mxGeometry x="330" width="150" height="30" as="geometry" />
        </mxCell>
        <mxCell id="MD2-rtIMPpAFqubzUFR5-436" style="shape=partialRectangle;collapsible=0;dropTarget=0;pointerEvents=0;fillColor=none;top=0;left=0;bottom=0;right=0;points=[[0,0.5],[1,0.5]];portConstraint=eastwest;" parent="MD2-rtIMPpAFqubzUFR5-411" vertex="1">
          <mxGeometry y="270" width="480" height="30" as="geometry" />
        </mxCell>
        <mxCell id="MD2-rtIMPpAFqubzUFR5-437" style="shape=partialRectangle;connectable=0;fillColor=none;top=0;left=0;bottom=0;right=0;editable=1;overflow=hidden;" parent="MD2-rtIMPpAFqubzUFR5-436" vertex="1">
          <mxGeometry width="30" height="30" as="geometry" />
        </mxCell>
        <mxCell id="MD2-rtIMPpAFqubzUFR5-438" value="video" style="shape=partialRectangle;connectable=0;fillColor=none;top=0;left=0;bottom=0;right=0;align=left;spacingLeft=6;overflow=hidden;" parent="MD2-rtIMPpAFqubzUFR5-436" vertex="1">
          <mxGeometry x="30" width="150" height="30" as="geometry" />
        </mxCell>
        <mxCell id="MD2-rtIMPpAFqubzUFR5-439" value="동영상" style="shape=partialRectangle;connectable=0;fillColor=none;top=0;left=0;bottom=0;right=0;align=left;spacingLeft=6;overflow=hidden;" parent="MD2-rtIMPpAFqubzUFR5-436" vertex="1">
          <mxGeometry x="180" width="150" height="30" as="geometry" />
        </mxCell>
        <mxCell id="MD2-rtIMPpAFqubzUFR5-501" value="String" style="shape=partialRectangle;connectable=0;fillColor=none;top=0;left=0;bottom=0;right=0;align=left;spacingLeft=6;overflow=hidden;" parent="MD2-rtIMPpAFqubzUFR5-436" vertex="1">
          <mxGeometry x="330" width="150" height="30" as="geometry" />
        </mxCell>
        <mxCell id="MD2-rtIMPpAFqubzUFR5-440" style="shape=partialRectangle;collapsible=0;dropTarget=0;pointerEvents=0;fillColor=none;top=0;left=0;bottom=0;right=0;points=[[0,0.5],[1,0.5]];portConstraint=eastwest;" parent="MD2-rtIMPpAFqubzUFR5-411" vertex="1">
          <mxGeometry y="300" width="480" height="30" as="geometry" />
        </mxCell>
        <mxCell id="MD2-rtIMPpAFqubzUFR5-441" style="shape=partialRectangle;connectable=0;fillColor=none;top=0;left=0;bottom=0;right=0;editable=1;overflow=hidden;" parent="MD2-rtIMPpAFqubzUFR5-440" vertex="1">
          <mxGeometry width="30" height="30" as="geometry" />
        </mxCell>
        <mxCell id="MD2-rtIMPpAFqubzUFR5-442" value="likes" style="shape=partialRectangle;connectable=0;fillColor=none;top=0;left=0;bottom=0;right=0;align=left;spacingLeft=6;overflow=hidden;" parent="MD2-rtIMPpAFqubzUFR5-440" vertex="1">
          <mxGeometry x="30" width="150" height="30" as="geometry" />
        </mxCell>
        <mxCell id="MD2-rtIMPpAFqubzUFR5-443" value="좋아요" style="shape=partialRectangle;connectable=0;fillColor=none;top=0;left=0;bottom=0;right=0;align=left;spacingLeft=6;overflow=hidden;" parent="MD2-rtIMPpAFqubzUFR5-440" vertex="1">
          <mxGeometry x="180" width="150" height="30" as="geometry" />
        </mxCell>
        <mxCell id="MD2-rtIMPpAFqubzUFR5-502" value="INT" style="shape=partialRectangle;connectable=0;fillColor=none;top=0;left=0;bottom=0;right=0;align=left;spacingLeft=6;overflow=hidden;" parent="MD2-rtIMPpAFqubzUFR5-440" vertex="1">
          <mxGeometry x="330" width="150" height="30" as="geometry" />
        </mxCell>
        <mxCell id="MD2-rtIMPpAFqubzUFR5-444" style="shape=partialRectangle;collapsible=0;dropTarget=0;pointerEvents=0;fillColor=none;top=0;left=0;bottom=0;right=0;points=[[0,0.5],[1,0.5]];portConstraint=eastwest;" parent="MD2-rtIMPpAFqubzUFR5-411" vertex="1">
          <mxGeometry y="330" width="480" height="30" as="geometry" />
        </mxCell>
        <mxCell id="MD2-rtIMPpAFqubzUFR5-445" style="shape=partialRectangle;connectable=0;fillColor=none;top=0;left=0;bottom=0;right=0;editable=1;overflow=hidden;" parent="MD2-rtIMPpAFqubzUFR5-444" vertex="1">
          <mxGeometry width="30" height="30" as="geometry" />
        </mxCell>
        <mxCell id="MD2-rtIMPpAFqubzUFR5-446" value="tags" style="shape=partialRectangle;connectable=0;fillColor=none;top=0;left=0;bottom=0;right=0;align=left;spacingLeft=6;overflow=hidden;" parent="MD2-rtIMPpAFqubzUFR5-444" vertex="1">
          <mxGeometry x="30" width="150" height="30" as="geometry" />
        </mxCell>
        <mxCell id="MD2-rtIMPpAFqubzUFR5-447" value="태그" style="shape=partialRectangle;connectable=0;fillColor=none;top=0;left=0;bottom=0;right=0;align=left;spacingLeft=6;overflow=hidden;" parent="MD2-rtIMPpAFqubzUFR5-444" vertex="1">
          <mxGeometry x="180" width="150" height="30" as="geometry" />
        </mxCell>
        <mxCell id="MD2-rtIMPpAFqubzUFR5-503" value="String" style="shape=partialRectangle;connectable=0;fillColor=none;top=0;left=0;bottom=0;right=0;align=left;spacingLeft=6;overflow=hidden;" parent="MD2-rtIMPpAFqubzUFR5-444" vertex="1">
          <mxGeometry x="330" width="150" height="30" as="geometry" />
        </mxCell>
        <mxCell id="MD2-rtIMPpAFqubzUFR5-543" value="post_type" style="shape=table;startSize=30;container=1;collapsible=1;childLayout=tableLayout;fixedRows=1;rowLines=0;fontStyle=1;align=center;resizeLast=1;" parent="1" vertex="1">
          <mxGeometry x="230" y="-180" width="480" height="90" as="geometry" />
        </mxCell>
        <mxCell id="MD2-rtIMPpAFqubzUFR5-544" value="" style="shape=partialRectangle;collapsible=0;dropTarget=0;pointerEvents=0;fillColor=none;top=0;left=0;bottom=1;right=0;points=[[0,0.5],[1,0.5]];portConstraint=eastwest;" parent="MD2-rtIMPpAFqubzUFR5-543" vertex="1">
          <mxGeometry y="30" width="480" height="30" as="geometry" />
        </mxCell>
        <mxCell id="MD2-rtIMPpAFqubzUFR5-545" value="" style="shape=partialRectangle;connectable=0;fillColor=none;top=0;left=0;bottom=0;right=0;fontStyle=1;overflow=hidden;" parent="MD2-rtIMPpAFqubzUFR5-544" vertex="1">
          <mxGeometry width="30" height="30" as="geometry" />
        </mxCell>
        <mxCell id="MD2-rtIMPpAFqubzUFR5-546" value="id" style="shape=partialRectangle;connectable=0;fillColor=none;top=0;left=0;bottom=0;right=0;align=left;spacingLeft=6;fontStyle=5;overflow=hidden;" parent="MD2-rtIMPpAFqubzUFR5-544" vertex="1">
          <mxGeometry x="30" width="150" height="30" as="geometry" />
        </mxCell>
        <mxCell id="MD2-rtIMPpAFqubzUFR5-547" value="타입번호" style="shape=partialRectangle;connectable=0;fillColor=none;top=0;left=0;bottom=0;right=0;align=left;spacingLeft=6;fontStyle=5;overflow=hidden;" parent="MD2-rtIMPpAFqubzUFR5-544" vertex="1">
          <mxGeometry x="180" width="150" height="30" as="geometry" />
        </mxCell>
        <mxCell id="MD2-rtIMPpAFqubzUFR5-548" value="INT" style="shape=partialRectangle;connectable=0;fillColor=none;top=0;left=0;bottom=0;right=0;align=left;spacingLeft=6;fontStyle=5;overflow=hidden;" parent="MD2-rtIMPpAFqubzUFR5-544" vertex="1">
          <mxGeometry x="330" width="150" height="30" as="geometry" />
        </mxCell>
        <mxCell id="MD2-rtIMPpAFqubzUFR5-559" value="" style="shape=partialRectangle;collapsible=0;dropTarget=0;pointerEvents=0;fillColor=none;top=0;left=0;bottom=0;right=0;points=[[0,0.5],[1,0.5]];portConstraint=eastwest;" parent="MD2-rtIMPpAFqubzUFR5-543" vertex="1">
          <mxGeometry y="60" width="480" height="30" as="geometry" />
        </mxCell>
        <mxCell id="MD2-rtIMPpAFqubzUFR5-560" value="" style="shape=partialRectangle;connectable=0;fillColor=none;top=0;left=0;bottom=0;right=0;editable=1;overflow=hidden;" parent="MD2-rtIMPpAFqubzUFR5-559" vertex="1">
          <mxGeometry width="30" height="30" as="geometry" />
        </mxCell>
        <mxCell id="MD2-rtIMPpAFqubzUFR5-561" value="type" style="shape=partialRectangle;connectable=0;fillColor=none;top=0;left=0;bottom=0;right=0;align=left;spacingLeft=6;overflow=hidden;" parent="MD2-rtIMPpAFqubzUFR5-559" vertex="1">
          <mxGeometry x="30" width="150" height="30" as="geometry" />
        </mxCell>
        <mxCell id="MD2-rtIMPpAFqubzUFR5-562" value="타입" style="shape=partialRectangle;connectable=0;fillColor=none;top=0;left=0;bottom=0;right=0;align=left;spacingLeft=6;overflow=hidden;" parent="MD2-rtIMPpAFqubzUFR5-559" vertex="1">
          <mxGeometry x="180" width="150" height="30" as="geometry" />
        </mxCell>
        <mxCell id="MD2-rtIMPpAFqubzUFR5-563" value="String" style="shape=partialRectangle;connectable=0;fillColor=none;top=0;left=0;bottom=0;right=0;align=left;spacingLeft=6;overflow=hidden;" parent="MD2-rtIMPpAFqubzUFR5-559" vertex="1">
          <mxGeometry x="330" width="150" height="30" as="geometry" />
        </mxCell>
        <mxCell id="MD2-rtIMPpAFqubzUFR5-569" value="" style="edgeStyle=entityRelationEdgeStyle;fontSize=12;html=1;endArrow=ERzeroToMany;exitX=0;exitY=0.5;exitDx=0;exitDy=0;endFill=1;" parent="1" source="MD2-rtIMPpAFqubzUFR5-154" target="MD2-rtIMPpAFqubzUFR5-19" edge="1">
          <mxGeometry width="100" height="100" relative="1" as="geometry">
            <mxPoint x="209.99999999999955" y="100" as="sourcePoint" />
            <mxPoint y="-130" as="targetPoint" />
          </mxGeometry>
        </mxCell>
        <mxCell id="cf8r5tpqv3BlE3Bak3ng-31" value="" style="edgeStyle=orthogonalEdgeStyle;fontSize=12;html=1;endArrow=ERzeroToMany;exitX=1;exitY=0.5;exitDx=0;exitDy=0;endFill=1;entryX=1;entryY=0.5;entryDx=0;entryDy=0;" parent="1" source="MD2-rtIMPpAFqubzUFR5-157" target="MD2-rtIMPpAFqubzUFR5-544" edge="1">
          <mxGeometry width="100" height="100" relative="1" as="geometry">
            <mxPoint x="280" y="55" as="sourcePoint" />
            <mxPoint x="80" y="155" as="targetPoint" />
            <Array as="points">
              <mxPoint x="830" y="125" />
              <mxPoint x="830" y="-135" />
            </Array>
          </mxGeometry>
        </mxCell>
        <mxCell id="cf8r5tpqv3BlE3Bak3ng-33" value="" style="edgeStyle=orthogonalEdgeStyle;fontSize=12;html=1;endArrow=ERzeroToMany;exitX=0;exitY=0.5;exitDx=0;exitDy=0;endFill=1;entryX=1.001;entryY=0.237;entryDx=0;entryDy=0;entryPerimeter=0;" parent="1" source="MD2-rtIMPpAFqubzUFR5-154" target="MD2-rtIMPpAFqubzUFR5-412" edge="1">
          <mxGeometry width="100" height="100" relative="1" as="geometry">
            <mxPoint x="280" y="55" as="sourcePoint" />
            <mxPoint x="80" y="500" as="targetPoint" />
            <Array as="points">
              <mxPoint x="170" y="95" />
              <mxPoint x="170" y="500" />
              <mxPoint x="140" y="500" />
              <mxPoint x="140" y="497" />
            </Array>
          </mxGeometry>
        </mxCell>
      </root>
    </mxGraphModel>
  </diagram>
</mxfile>
